<?xml version="1.0" encoding="utf-8" ?><svg xmlns="http://www.w3.org/2000/svg" xmlns:xlink="http://www.w3.org/1999/xlink" width="512" height="512" viewBox="0 0 512 512"><path fill="#2B2D42" d="M355.944 47.0145C461.475 43.6646 490.162 209.672 404.286 263.685C399.554 266.661 395.283 269.014 389.873 270.584L389.878 416.158C389.887 440.585 391.537 452.604 365.496 461.723C355.211 462.105 347.121 459.78 339.712 452.34C330.605 443.194 332.371 429.998 332.373 418.135L332.383 307.481C332.383 295.374 332.173 282.644 332.381 270.584C325.858 268.871 314.794 261.699 309.411 257.395C238.107 199.761 259.941 56.9336 355.944 47.0145Z"/><path fill="#EDF2F4" d="M357.266 55.7505C375.209 54.669 393.199 61.3489 406.912 72.4495C471.986 125.126 454.443 257.793 365.496 267.446C347.181 268.007 329.487 262.754 315.31 250.997C249.11 196.094 269.457 64.7089 357.266 55.7505Z"/><path fill="#2B2D42" d="M357.266 73.8586C371.007 72.3121 387.587 78.9205 397.759 87.9653C435.445 121.476 439.111 187.666 406.964 226.111C396.912 238.133 381.374 248.108 365.496 249.256C347.322 250.897 330.476 242.4 318.189 229.537C274.204 183.265 291.005 77.8991 357.266 73.8586Z"/><path fill="#EDF2F4" d="M358.902 82.7431C370.443 81.8765 382.226 86.7704 391.075 93.8999C437.407 131.643 426.883 233.716 363.697 240.733C300.937 242.091 283.722 143.779 324.294 99.5263C333.273 89.7323 345.409 83.0494 358.902 82.7431Z"/><path fill="#EF233C" d="M341.145 383.111L381.249 383.111L381.243 430.134C381.233 437.162 379.959 441.69 375.336 446.993C364.303 457.043 346.301 453.364 341.799 438.134C340.521 433.807 341.128 422.543 341.13 417.503L341.145 383.111Z"/><path fill="#EF233C" d="M341.145 304L381.249 304L381.249 347.524L341.145 347.524L341.145 304Z"/><path fill="#6E6D95" d="M381.249 273.586L381.372 273.556C381.605 273.805 381.246 292.904 381.249 294.255C376.884 294.255 342.564 294.551 341.367 294.083L341.145 293.522L341.145 273.586C358.214 277.045 365.093 276.171 381.249 273.586Z"/><path fill="#EF233C" d="M341.145 356.905L381.249 356.905L381.249 374.001L341.145 374.001C340.935 368.875 341.138 362.147 341.145 356.905Z"/><path fill="#2B2D42" d="M106.426 53.6501L109.955 53.6501C112.4 54.8235 112.638 55.4817 113.321 58.06C90.0735 110.505 83.0566 165.677 99.7017 221.76C104.438 237.717 117.652 271.983 139.51 265.007C134.081 261.792 128.054 258.675 124.262 253.493C116.19 242.46 121.735 232.363 131.405 225.622C117.181 216.648 116.146 200.461 131.405 191.375C115.459 183.098 117.631 166.512 131.405 156.978C117.194 147.799 116.213 131.31 131.405 123.216C115.58 114.343 117.265 98.6147 131.405 89.3081C107.483 77.3658 128.122 44.1104 149.316 56.4656C152.396 58.261 155.504 60.2365 158.576 62.1554L188.364 81.0926C197.26 86.6969 204.145 92.3292 201.346 104.709C200.007 110.627 195.702 114.293 190.78 117.328C205.55 124.602 205.698 143.651 190.78 150.695C204.912 159.789 206.511 177.268 190.78 185.272C206.483 193.249 204.77 210.144 190.78 218.888C195.426 221.934 198.066 224.173 200.438 229.24C204.382 238.746 199.648 248.688 190.78 253.228C213.282 265.93 196.811 302.136 168.503 283.829C165.661 288.311 158.075 303.486 157.803 307.542C157.459 312.658 159.816 318.711 161.081 323.71L175.323 379.369C177.223 386.895 177.838 391.83 182.335 398.323C198.528 424.642 178.691 462.196 145.951 461.931C116.36 461.691 95.8699 432.745 105.361 404.496C107.068 399.368 109.9 396.458 111.577 391.099C119.478 365.918 129.164 336.253 115.806 311.292C112.391 304.911 102.262 297.489 96.7094 292.068C52.0623 248.478 49.2507 134.501 69.3803 75.8643C74.8787 59.848 78.1579 53.6168 96.3095 53.6269L106.426 53.6501ZM147.614 453.184C166.423 451.983 180.666 435.713 179.368 416.911C178.07 398.109 161.726 383.95 142.931 385.345C124.273 386.73 110.24 402.929 111.528 421.594C112.817 440.259 128.943 454.376 147.614 453.184Z"/><path fill="#EF233C" d="M134.712 343.813C130.373 330.248 129.548 313.571 119.895 302.444C111.343 292.586 100.117 285.405 92.8251 274.373C69.4819 239.056 62.7321 170.096 66.7003 130.07C67.959 117.374 75.0426 74.1061 83.8697 65.513C88.5435 60.9631 95.9168 61.96 101.898 62.001C79.0908 118.607 73.4481 183.472 97.6772 240.753C107.503 263.984 121.604 281.853 147.26 270.584C151.42 272.694 156.875 276.515 160.93 279.126C150.99 302.693 145.392 298.037 153.078 327.459L157.119 342.793C150.237 342.656 142.164 343.732 134.712 343.813Z"/><path fill="#EDF2F4" d="M138.338 198.289C144.775 197.998 158.427 208.637 164.325 212.332L181.042 222.88C184.109 224.849 187.64 226.878 190.382 229.243C197.2 235.124 192.644 244.168 184.93 246.233C176.111 246.715 160.546 233.95 152.501 228.836L140.546 221.249C134.378 217.343 125.144 212.852 130.551 203.254C132.142 200.431 135.247 198.994 138.338 198.289Z"/><path fill="#EDF2F4" d="M138.338 129.783C142.212 129.522 148.847 134.433 152.232 136.534L183.223 156.087C189.129 159.82 196.979 163.724 192.479 172.889C191.033 175.835 187.999 177.205 184.93 178.01C177.964 178.812 159.717 164.845 152.975 160.55L141.543 153.286C138.673 151.47 134.024 148.894 131.793 146.533C125.351 139.718 130.53 131.677 138.338 129.783Z"/><path fill="#EDF2F4" d="M192.804 198.289C195.56 203.916 190.621 210.762 184.897 211.747C179.755 212.632 177.068 210.025 173.085 207.459L143.294 188.475C140.114 186.478 133.226 182.841 131.057 180.15C126.233 174.162 130.598 164.809 138.231 163.98C142.337 163.534 145.962 166.547 149.335 168.662L176.862 186.098C179.09 187.511 183.005 189.861 184.93 191.375C188.16 193.127 191.088 194.943 192.804 198.289Z"/><path fill="#EDF2F4" d="M137.383 96.2834C144.955 95.5109 157.201 105.553 163.964 109.791L180.865 120.553C186.854 124.444 197.209 129.389 192.141 138.776C190.556 141.71 188.1 143.139 184.93 143.959C179.551 144.885 172.941 139.295 168.556 136.532L140.323 118.615C134.51 114.889 125.936 110.732 130.274 101.751C131.657 98.888 134.392 97.2009 137.383 96.2834Z"/><path fill="#EDF2F4" d="M192.804 267.446L192.868 267.719C194.28 273.98 190.662 278.721 184.486 280.001C177.574 281.434 171.099 274.842 165.622 271.518C159.179 267.432 130.542 251.667 129.653 244.385C128.534 237.826 135.62 229.999 142.359 233.166C152.079 237.734 166.149 248.164 175.84 254.07C177.682 255.202 180.332 256.566 181.964 257.855C185.91 259.904 191.277 263.063 192.804 267.446Z"/><path fill="#EDF2F4" d="M139.51 62.001C149.727 64.9242 169.256 78.8124 178.357 84.9497C185.088 89.4893 198.282 94.3484 191.782 105.405C190.093 108.278 187.071 109.603 183.884 110.265C179.558 110.326 172.598 104.818 168.73 102.324L150.873 91.0096C145.697 87.7532 131.028 80.8594 129.63 74.6794C128.154 68.1503 133.685 63.3591 139.51 62.001Z"/><path fill="#E22422" d="M134.712 343.813C142.164 343.732 150.237 342.656 157.119 342.793C160.201 355.95 163.202 369.432 167.269 382.328C158.355 378.364 153.823 376.209 143.251 376.471C140.358 366.794 137.086 353.775 134.712 343.813Z"/><path fill="#8D99AE" d="M129.33 360.425C131.073 363.165 132.028 372.914 134.712 378.155C130.845 379.166 129.329 379.744 125.746 381.522C124.737 382.097 123.78 382.587 122.749 383.111C124.743 375.358 127.369 368.68 129.33 360.425Z"/></svg>