<?xml version="1.0" encoding="utf-8" ?><svg xmlns="http://www.w3.org/2000/svg" xmlns:xlink="http://www.w3.org/1999/xlink" width="512" height="512" viewBox="0 0 512 512"><path fill="#2B2D42" d="M311.978 170.341L328.279 170.319C342.708 170.245 351.454 171.252 352.132 187.379L425.218 187.368C441.879 187.242 443.605 188.269 443.547 206.68L443.605 218.869C443.601 229.663 438.704 232.413 428.705 231.989L428.71 286.504C428.711 308.857 432.509 332.179 407.444 342.227L397.029 438.702C394.284 464.735 390.006 462.242 366.938 462.246L337.875 462.241L273.887 462.252C255.929 462.251 253.506 460.222 251.597 442.351L244.965 379.127C243.857 367.674 242.976 355.025 241.379 343.686C222.942 333.091 220.2 321.912 220.194 302.789L220.199 231.989C211.272 231.926 205.801 230.561 205.763 220.014L205.756 206.25C205.694 188.602 207.811 187.367 225.312 187.37L296.48 187.379C297.156 177.53 301.307 171.079 311.978 170.341ZM240.508 334.826C240.128 325.984 238.382 314.718 237.561 305.59L235.822 285.521C234.585 271.191 230.669 262.434 228.389 248.862C228.175 247.592 227.089 239.094 226.999 238.955C226.72 254.178 227.113 269.565 226.99 284.871C226.861 300.956 223.913 325.191 240.508 334.826ZM408.632 333.909C423.621 324.033 421.274 313.761 421.267 298.06L421.282 250.539C421.287 249.401 421.426 244.982 421.268 244.169C419.437 250.118 414.311 268.636 413.737 273.53C411.58 291.927 410.788 310.714 408.516 329.278C408.357 330.579 408.188 332.329 408.276 333.608L408.565 333.851C408.587 333.87 408.609 333.89 408.632 333.909Z"/><path fill="#8D99AE" d="M404.637 294.185C405.049 296.275 403.025 312.407 402.659 315.752L392.031 417.116C391.05 426.237 390.14 435.366 389.326 444.504C388.824 450.131 389.15 452.222 383.935 455.232L280.099 455.246C273.413 455.249 260.855 457.68 259.564 449.505C258.7 444.04 258.206 438.471 257.603 432.965L253.718 393.941C252.862 387.459 252.361 380.003 251.697 373.427L247.129 328.089C246.11 317.89 244.972 305.444 243.545 295.314C279.242 367.49 372.342 363.654 404.637 294.185Z"/><path fill="#8D99AE" d="M233.677 231.989L394.666 231.987C400.652 231.986 408.429 231.736 414.243 231.989C413.535 235.995 413.037 241.511 412.401 245.79C406.625 277.79 394.52 307.925 367 327.181C329.993 353.074 281.54 340.461 257.033 303.982C244.829 285.816 239.02 267.042 235.343 245.79C234.415 241.745 233.986 236.217 233.677 231.989Z"/><path fill="#606379" d="M233.677 231.989L394.666 231.987C400.652 231.986 408.429 231.736 414.243 231.989C413.535 235.995 413.037 241.511 412.401 245.79L235.629 245.237C235.332 245.642 235.393 245.444 235.343 245.79C234.415 241.745 233.986 236.217 233.677 231.989Z"/><path fill="#AAB9C3" d="M303.676 188.543C303.836 178.691 306.98 177.247 316.277 177.234C323.111 177.224 329.986 177.193 336.82 177.308C344.205 177.434 345.344 182.197 345.305 188.543C345.354 190.028 344.93 193.934 345.257 194.422L345.305 194.441L421.242 194.429C424.807 194.421 435.191 193.094 436.507 196.917C437.148 201.677 436.86 222.062 435.511 223.976C433.901 224.49 431.453 224.689 429.756 224.695L223.54 224.727C220.288 224.725 216.747 224.854 213.552 224.365C212.258 222.13 212.718 206.122 212.775 202.617C212.712 199.072 211.817 194.471 216.597 194.433L303.676 194.441L303.676 188.543Z"/><path fill="#EDF2F4" d="M212.775 202.617C212.712 199.072 211.817 194.471 216.597 194.433L303.676 194.441C303.225 206.889 292.407 205.713 283.337 205.716L212.775 205.71C212.797 204.882 212.886 203.382 212.775 202.617Z"/><path fill="#EDF2F4" d="M345.305 194.441L421.242 194.429C424.807 194.421 435.191 193.094 436.507 196.917C436.401 198.603 436.462 200.908 436.507 202.617C430.424 206.642 427.681 205.722 420.856 205.72L371.952 205.711C363.869 205.709 343.751 208.178 344.882 194.703L345.305 194.441Z"/><path fill="#EDF2F4" d="M303.676 188.543C303.836 178.691 306.98 177.247 316.277 177.234C323.111 177.224 329.986 177.193 336.82 177.308C344.205 177.434 345.344 182.197 345.305 188.543L303.676 188.543Z"/><path fill="#2B2D42" d="M139.336 42.2849C161.19 41.194 155.741 68.1065 155.74 82.3856L155.742 349.585C182.178 357.28 200.532 376.657 202.73 405.047C203.45 414.332 202.465 417.238 204.63 426.811C206.89 436.728 209.701 446.504 211.896 456.437C212.526 459.289 215.726 465.597 210.147 465.759C202.669 465.976 195.126 465.872 187.633 465.872L143.271 465.863L98.3345 465.87C94.1921 465.87 69.8298 467.681 69.0371 463.348C67.5826 455.396 80.188 427.402 79.1538 411.701C77.2041 382.101 98.3289 358.524 125.578 349.585L125.581 91.2877C125.58 80.1165 125.445 68.9396 125.724 57.7736C125.936 49.2864 131.464 44.167 139.336 42.2849Z"/><path fill="#EF233C" d="M132.628 96.1676L148.956 96.1676C148.705 102.37 148.953 110.465 148.954 116.813L148.958 337.249C148.956 340.254 147.656 354.407 150.435 355.194C172.008 361.302 188.144 372.645 194.053 395.564L144.323 395.566C140.458 395.565 115.563 394.714 113.365 396.259C111.346 397.68 112.103 402.142 114.846 402.181C117.293 402.215 119.658 402.091 122.062 402.069L190.453 402.056C192.288 402.017 194.155 402.046 195.993 402.056C195.678 406.03 195.985 411.88 195.993 416.091L86.2846 416.091L86.2846 402.056C88.2288 402.048 101.737 402.457 102.341 401.79C109.806 393.546 92.0699 395.532 87.9059 395.564C92.988 378.478 105.476 364.587 122.286 358.272C126.651 356.633 132.672 357.108 132.658 352.041L132.628 96.1676Z"/><path fill="#AAB9C3" d="M135.372 422.86L196.63 422.86C198.245 431.203 202.425 451.121 205.783 458.942C201.954 458.713 195.975 458.923 191.956 458.942C191.419 456.276 188.304 428.56 182.382 436.662C181.306 438.133 185.965 455.9 186.668 458.942L168.614 458.942C168.483 457.558 165.645 428.328 160.353 435.838C158.847 437.976 162.965 455.428 163.68 458.942L143.271 458.942C143.232 451.329 144.068 444.413 144.463 436.898C137.039 426.833 138.403 456.937 138.529 458.942L118.847 458.942C119.291 455.249 123.378 438.679 122.402 436.711C117.132 426.089 113.253 458.387 113.137 458.942L95.5365 458.942C96.2528 455.226 101.878 439.149 100.698 436.768C95.6653 426.616 90.0697 457.616 89.7021 458.942L76.3589 458.942L82.5316 436.088C83.6237 431.988 84.8189 426.747 86.2846 422.86L135.372 422.86Z"/><path fill="#8D99AE" d="M139.336 49.2778C150.755 48.5316 148.985 59.4504 148.972 66.9688L148.956 89.2458L141.993 89.2458L132.628 89.2458C132.629 84.0015 132.011 57.8291 133.176 54.9117C134.334 52.0144 136.553 50.4113 139.336 49.2778Z"/></svg>