<?xml version="1.0" encoding="utf-8" ?><svg xmlns="http://www.w3.org/2000/svg" xmlns:xlink="http://www.w3.org/1999/xlink" width="512" height="512" viewBox="0 0 512 512"><path fill="#2B2D42" d="M91.6231 88.2628L92.1249 88.2452C99.3354 88.0636 107.629 88.2603 114.907 88.2607L405.418 88.2482C421.38 88.233 437.547 89.3124 441.482 109.472C442.227 113.286 441.969 118.666 441.967 122.638L441.956 215.879C446.369 220.474 446.723 222.404 446.744 228.669L446.744 389.454C446.748 398.445 448.738 410.676 442.173 417.429C436.23 423.541 426.628 421.995 418.792 421.993L388.125 421.976L337.273 421.988C314.931 422.069 315.566 414.567 315.631 394.27L205.373 394.274C201.564 394.281 195.144 394.698 191.82 394.034C181.989 391.773 178.659 378.724 185.945 371.675C191.6 366.204 200.892 367.701 208.397 367.741C209.556 359.351 212.749 346.514 214.562 337.752L102.446 337.765C97.6845 337.766 91.4792 338.055 86.8738 337.348C68.7159 334.562 65.1618 319.342 65.2299 304.26L65.244 127.592C65.2522 107.557 68.0395 91.1294 91.6231 88.2628Z"/><path fill="white" d="M96.8309 118.666L412.177 118.666L412.177 212.677L341.875 212.677L331.738 212.623C321.4 212.566 315.546 217.689 315.613 228.316L315.631 281.256L95.431 281.256L95.4478 138.458C95.4469 135.508 95.1413 119.827 95.7478 118.76L96.8309 118.666Z"/><path fill="#D11A24" d="M206.904 146.994C232.229 144.504 263.392 159.108 280.385 177.162C282.303 179.316 285.435 181.749 285.935 184.731C286.66 189.356 283.028 193.822 278.251 193.684C273.43 193.544 270.96 188.746 267.835 185.697C253.185 171.403 232.197 162.584 211.723 162.221C188.713 161.895 167.148 170.063 149.927 185.354C145.836 188.987 140.032 196.846 133.708 191.142C129.721 187.545 131.448 182.243 134.8 178.76C153.592 159.232 179.761 147.458 206.904 146.994Z"/><path fill="#F99F8F" d="M203.359 152.245C230.761 151.631 256.656 160.006 275.997 180.261C277.966 182.324 279.599 184.13 281.021 186.569C279.895 187.723 279.537 187.949 278.223 188.816C275.716 186.954 271.04 181.04 267.624 178.204C251.523 164.836 235.119 158.727 214.562 156.993C179.028 156.715 164.236 166.115 139.277 187.686C138.212 188.606 134.992 186.413 137.752 183.513C155.806 164.545 177.59 154.966 203.359 152.245Z"/><path fill="#D11A24" d="M204.921 174.247C227.35 173.891 247.122 180.825 262.793 197.611C270.762 206.311 262.293 214.465 255.975 211.313C252.745 209.701 250.008 206 247.207 203.655C237.502 195.531 225.457 190.559 212.813 189.75C178.411 188.793 165.815 211.452 159.398 211.939C151.704 212.523 147.443 204.668 152.936 198.832C167.051 183.835 184.698 176.282 204.921 174.247Z"/><path fill="#F99F8F" d="M206.904 179.741C223.407 177.23 251.519 189.872 260.115 202.93C261.744 205.405 259.851 206.233 258.014 207.292C243.414 193.104 232.044 184.069 209.712 184.293C194.348 183.969 179.124 190.165 166.96 199.314C163.794 201.694 161.505 205.134 158.515 207.292C156.15 206.012 154.338 204.645 156.733 202.287C170.354 188.873 187.704 180.32 206.904 179.741Z"/><path fill="#D11A24" d="M206.904 201.791C218.153 198.315 237.242 209.092 244.863 216.994C250.043 222.364 245.997 238.604 230.609 224.739C225.319 219.973 219.773 217.871 212.813 217.016C192.619 215.785 181.788 231.046 178.704 230.535C170.764 229.22 168.526 221.277 173.916 216.148C183.201 207.313 194.399 202.062 206.904 201.791Z"/><path fill="#F99F8F" d="M206.904 207.292C216.933 205.851 228.548 210.314 236.433 216.42C245.348 223.324 241.694 228.034 237.16 223.476C230.464 216.743 222.198 212.841 212.813 211.763C192.358 210.644 191.508 217.536 178.304 225.091C175.482 224.101 176.66 221.028 178.338 219.471C186.313 212.071 195.974 207.554 206.904 207.292Z"/><path fill="#2B2D42" d="M206.804 229.98C216.855 228.792 225.979 235.942 227.23 245.984C228.48 256.027 221.389 265.196 211.354 266.51C201.229 267.836 191.961 260.667 190.699 250.534C189.437 240.402 196.664 231.178 206.804 229.98Z"/><path fill="#D11A24" d="M200.045 256.717C196.258 252.669 195.648 246.588 198.555 241.868C201.462 237.149 207.168 234.957 212.487 236.518C217.461 237.977 220.986 242.4 221.299 247.574C221.613 252.749 218.647 257.564 213.884 259.613C209.122 261.662 203.586 260.503 200.045 256.717Z"/><path fill="#EF233C" d="M200.045 256.717C196.258 252.669 195.648 246.588 198.555 241.868C201.462 237.149 207.168 234.957 212.487 236.518C210.873 246.403 210.524 252.906 200.045 256.717Z"/><path fill="white" d="M321.777 373.109L321.793 239.12C321.731 221.791 318.563 218.833 339.295 218.876L428.738 218.894C443.01 219.258 440.419 225.092 440.415 236.132L440.424 396.286C440.449 420.984 434.076 415.594 412.369 415.565L341.286 415.554C322.708 415.473 321.766 417.921 321.76 396.132L321.777 373.109Z"/><path fill="#2B2D42" d="M430.198 380.318C425.129 383.928 414.711 382.511 408.351 382.504L349.778 382.517C334.557 382.547 330.839 386.12 330.941 368.001L330.951 285.613C330.949 279.681 330.294 250.486 331.57 247.099C334.583 239.102 347.646 241.512 354.501 241.527L407.16 241.525C414.119 241.523 422.184 240.446 428.738 243.103C433.783 248.79 431.882 257.949 431.874 265.662L431.872 350.03C431.872 357.025 433.224 374.76 430.198 380.318Z"/><path fill="#EF233C" d="M336.973 356.617L336.961 263.686C336.96 260.5 336.375 250.467 338.142 248.283C341.573 246.928 410.64 247.895 420.324 247.913C422.008 247.916 423.389 247.8 424.601 249.057C426.492 252.183 425.571 262.753 425.572 266.684L425.564 376.09L336.973 376.09C336.887 370.692 336.729 361.87 336.973 356.617Z"/><path fill="#D11A24" d="M424.601 249.057C426.492 252.183 425.571 262.753 425.572 266.684L425.564 376.09L336.973 376.09C336.887 370.692 336.729 361.87 336.973 356.617C377.893 355.59 410.199 321.965 410.804 281.236C410.956 270.987 410.979 260.802 410.971 250.545C413.758 250.746 423.292 251.611 424.601 249.057Z"/><path fill="#EDF2F4" d="M428.738 218.894C443.01 219.258 440.419 225.092 440.415 236.132L440.424 396.286C440.449 420.984 434.076 415.594 412.369 415.565L341.286 415.554C322.708 415.473 321.766 417.921 321.76 396.132L321.777 373.109C322.079 374.469 321.797 380.379 321.791 382.316L321.777 405.795C326.277 405.639 375.634 406.141 377.073 405.119C379.351 406.529 382.211 406.601 384.557 405.308C386.754 406.299 418.546 404.883 423.802 405.323C431.442 405.964 431.087 385.822 430.198 380.318C433.224 374.76 431.872 357.025 431.872 350.03L431.874 265.662C431.882 257.949 433.783 248.79 428.738 243.103C428.332 236.49 428.738 225.857 428.738 218.894Z"/><path fill="#2B2D42" d="M377.073 405.119C374.226 403.356 372.913 399.904 373.87 396.695C374.826 393.485 377.815 391.315 381.163 391.4C384.511 391.484 387.387 393.802 388.181 397.055C388.975 400.309 387.489 403.691 384.557 405.308C382.211 406.601 379.351 406.529 377.073 405.119Z"/><path fill="#2B2D42" d="M366.239 227.092C370.418 227.089 397.925 226.478 399.708 227.848C402.143 229.717 400.201 233.194 397.562 233.488C393.162 233.494 365.916 234.122 363.863 232.859C361.039 231.121 362.674 227.47 366.239 227.092Z"/><path fill="#EDF2F4" d="M93.103 94.5187L405.401 94.5034C432.304 94.478 435.811 100.559 435.8 124.617L435.791 212.677C430.811 212.414 423.594 212.663 418.466 212.677L418.475 148.983C418.475 142.873 419.17 117.852 417.682 113.468C416.014 112.035 411.745 112.497 409.492 112.498L98.2142 112.52C84.5138 112.514 89.1571 118.72 89.0791 133.062L89.0743 263.744C89.0747 269.636 89.0075 275.551 89.1554 281.44C89.3592 289.548 94.1014 287.474 101.094 287.468L315.631 287.453L315.631 331.466L98.3825 331.493C75.2418 331.571 71.4503 323.32 71.4866 301.271L71.4947 127.384C71.4974 111.126 73.2921 96.1552 93.103 94.5187Z"/><path fill="#8D99AE" d="M221.102 337.752L290.202 337.752C292.426 347.585 294.472 357.841 296.612 367.741L290.202 367.741L214.562 367.741C216.264 357.692 219.272 347.819 221.102 337.752Z"/><path fill="#8D99AE" d="M195.952 374.248C197.46 374.056 205.015 374.228 207.005 374.231L315.631 374.248L315.631 387.987C313.035 387.852 310.693 387.923 308.103 387.987L205.587 387.989C201.843 387.992 198.099 388.161 194.383 388.022C186.513 387.727 185.793 374.643 195.952 374.248Z"/><path fill="white" d="M296.612 337.752L315.631 337.752L315.631 367.741L303.411 367.741C301.106 358.768 298.361 346.826 296.612 337.752Z"/></svg>