<?xml version="1.0" encoding="utf-8" ?><svg xmlns="http://www.w3.org/2000/svg" xmlns:xlink="http://www.w3.org/1999/xlink" width="512" height="512" viewBox="0 0 512 512"><defs><linearGradient id="gradient_0" gradientUnits="userSpaceOnUse" x1="235.03465" y1="446.03116" x2="286.13712" y2="87.654556"><stop offset="0" stop-color="#333852"/><stop offset="1" stop-color="#4A3B4F"/></linearGradient></defs><path fill="url(#gradient_0)" d="M142.661 113.026C142.639 109.57 142.376 91.6517 143.109 89.3654C145.732 87.2744 177.055 88.07 178.427 89.2266C179.075 91.4953 178.793 109.474 178.785 113.026C186.659 114.411 194.062 118.346 200.731 122.61C202.835 120.193 214.024 108.164 216.524 107.983C219.09 109.127 238.693 129.033 240.016 131.82C239.987 133.331 227.341 145.276 225.38 147.212C230.188 155.682 232.046 161.16 234.427 170.271C238.15 170.265 257.316 169.617 258.95 171.238C259.812 174.345 259.943 202.166 258.765 204.218C258.048 205.468 250.766 204.865 249.41 204.864L233.744 204.841C231.507 212.855 229.014 218.565 224.298 225.382C227.626 229.232 240.75 239.666 237.015 243.331C232.195 248.062 219.464 262.103 214.265 264.529C209.705 261.629 201.999 253.142 197.592 249.124C190.907 252.29 185.537 254.569 178.785 257.411L178.785 271.415C180.694 274.269 180.043 275.102 177.086 276.703C169.643 280.735 161.853 284.18 154.324 288.018L96.9992 317.118C86.8331 322.21 76.5364 326.913 66.5155 332.279C67.3277 359.969 66.855 389.459 66.5155 417.162L75.8116 417.162C76.1621 413.765 75.7818 410.361 75.7962 406.924L75.8048 365.571C75.8044 361.04 75.3315 341.058 76.8612 338.508C74.827 332.986 89.6275 328.656 95.2505 325.814L153.947 296.22C157.777 294.286 175.28 283.682 178.236 284.501C179.227 285.557 178.786 299.852 178.786 302.257L178.785 333.404L188.752 333.404L188.738 293.994C188.738 291.018 188.284 271.904 189.475 270.26C195.93 267.973 227.119 271.39 231.671 269.354C251.158 260.638 272.494 248.48 291.627 238.607C298.807 234.902 310.585 227.83 317.694 225.382C317.646 222.396 317.602 219.573 317.694 216.585C300.35 224.33 277.792 237.073 260.975 246.384L243.775 255.826C241.781 256.897 234.31 261.903 232.075 260.714C224.624 256.75 246.389 247.918 248.801 246.651L318.872 209.488C321.926 207.903 322.846 209.112 322.872 212.186L322.873 269.749L334.008 269.749C334.327 257.943 335.523 246.379 336.241 234.604L339.585 179.87C339.824 176.234 340.801 155.669 341.917 153.428C343.925 152.644 352.554 152.904 355.047 153.067L355.03 121.786C355.029 118.744 354.575 104.623 355.88 102.756C359.122 101.484 384.864 102.287 390.381 102.254C396.9 102.215 394.253 113.751 394.251 119.568L394.25 153.067C397.02 153.051 405.527 152.638 407.661 153.516C408.498 154.606 410.999 189.487 411.334 193.556L417.544 269.749C422.519 269.744 447.283 269.073 450.172 270.349C450.781 271.132 450.815 272.574 450.807 273.565L450.767 404.113C450.766 408.763 451.008 417.696 450.502 421.973L450.302 422.248C447.331 422.562 442.328 422.391 439.169 422.384L86.9179 422.383C82.426 422.382 64.9978 422.664 61.9582 421.798C61.3619 419.213 61.5406 413.227 61.5406 410.365L61.5609 328.784C65.3911 326.442 72.1012 323.334 76.3634 321.209L134.253 292.245C142.332 288.114 150.793 283.494 159.089 279.974C134.989 278.782 143.162 281.738 141.771 257.411C135 255.165 128.599 252.527 122.312 249.124C119.86 251.42 107.285 263.472 105.043 263.448C102.845 262.376 84.2092 243.616 82.7161 240.965C84.1968 237.99 94.2493 228.002 97.0605 225.382C93.4209 220.005 88.8935 211.004 87.5705 204.841C84.3508 204.844 64.4218 205.152 63.0465 204.488C60.8602 201.199 60.9063 173.859 62.9095 170.949C65.3171 169.838 82.9693 170.264 86.9729 170.271C87.5714 163.744 92.4219 152.705 95.8371 147.212C91.9055 143.732 82.3874 135.405 79.9362 131.318C82.4636 127.08 101.639 108.25 103.994 107.695C105.858 107.256 118.661 120.598 120.778 122.61C128.773 117.7 133.452 115.418 142.661 113.026ZM161.883 226.255C184.833 225.428 202.738 206.102 201.814 183.155C200.89 160.209 181.488 142.385 158.546 143.407C135.74 144.422 118.047 163.683 118.965 186.492C119.884 209.302 139.07 227.077 161.883 226.255ZM339.515 269.749L344.487 269.749C346.725 269.151 349.815 269.537 352.162 269.749C352.028 262.103 352.716 253.464 353.077 245.702L356.112 189.468C356.319 185.899 358.364 160.085 357.343 158.631C356.529 158.51 355.869 158.464 355.047 158.408C352.133 158.352 349.221 158.388 346.307 158.408C346.297 168.855 344.936 180.213 344.23 190.761L341.264 239.373C340.649 248.09 339.335 261.314 339.515 269.749Z"/><path fill="#EDF2F4" d="M445.54 279.974C445.337 279.646 445.472 277.615 445.54 277.105C445.75 281.856 445.544 287.535 445.542 292.409L445.54 417.162L75.8116 417.162C76.1621 413.765 75.7818 410.361 75.7962 406.924L75.8048 365.571C75.8044 361.04 75.3315 341.058 76.8612 338.508L193.837 338.508L193.837 279.433L194.105 279.813C194.204 279.866 335.616 279.899 343.75 279.887L382.755 279.928C403.388 279.907 425.006 280.344 445.54 279.974Z"/><path fill="#2B2D42" d="M209.49 292.661L250.763 292.661L250.763 329.758L209.49 329.758L209.49 292.661Z"/><path fill="#BAD2E6" d="M214.753 298.103C224.735 297.915 235.419 298.094 245.453 298.103L245.453 324.37L214.753 324.37L214.753 298.103Z"/><path fill="#2B2D42" d="M316.653 292.661L357.572 292.661L357.572 329.758L316.653 329.758L316.653 292.661Z"/><path fill="#BAD2E6" d="M321.964 298.103L352.162 298.103L352.162 324.37L321.964 324.37L321.964 298.103Z"/><path fill="#2B2D42" d="M390.002 292.661L430.843 292.661L430.843 329.758C428.003 330.01 421.043 329.776 417.802 329.773L390.002 329.758L390.002 292.661Z"/><path fill="#BAD2E6" d="M396.071 298.103L425.569 298.103L425.546 312.901C425.544 316.647 426.041 320.489 425.93 324.18L425.569 324.37C415.731 324.365 405.035 324.591 395.268 324.37C395.269 321.176 394.938 299.578 395.408 298.268L396.071 298.103Z"/><path fill="#2B2D42" d="M316.653 357.26L357.572 357.26L357.572 393.082L316.653 393.082L316.653 357.26Z"/><path fill="#BAD2E6" d="M321.964 362.57C324.626 362.378 329.262 362.551 332.11 362.554L352.162 362.57L352.162 388.187C342.231 388.351 331.923 388.199 321.964 388.187L321.964 362.57Z"/><path fill="#2B2D42" d="M236.475 356.642L250.763 356.642L250.763 391.983L224.298 391.983L209.49 391.983L209.49 356.642L236.475 356.642Z"/><path fill="#BAD2E6" d="M214.753 362.015L245.453 362.015C245.625 363.728 245.48 368.193 245.477 370.091L245.453 386.81L214.753 386.81L214.753 362.015Z"/><path fill="#2B2D42" d="M390.002 357.26L430.843 357.26L430.843 393.082C426.772 393.245 421.432 393.087 417.275 393.087L390.002 393.082L390.002 357.26Z"/><path fill="#BAD2E6" d="M396.071 362.57L425.569 362.57C425.567 365.345 425.882 387.689 425.569 388.187L395.268 388.187L395.269 368.488C395.28 367.219 395.245 363.383 396.071 362.57Z"/><path fill="white" d="M193.837 274.782L445.54 274.782L445.54 277.105C445.472 277.615 445.337 279.646 445.54 279.974C425.006 280.344 403.388 279.907 382.755 279.928L343.75 279.887C335.616 279.899 194.204 279.866 194.105 279.813L193.837 279.433L193.837 274.782Z"/><path fill="#EF233C" d="M147.983 93.7569L173.76 93.7569L173.747 107.652C173.734 109.717 172.475 116.647 175.113 117.307C187.904 120.506 191.566 124.523 201.748 129.384C204.134 126.639 213.563 117.06 216.364 114.741C219.876 118.376 229.708 128.348 233.744 131.318C229.737 135.574 221.747 142.622 219.071 147.212C223.667 154.299 227.26 162.155 228.812 170.483C229.214 172.639 229.388 175.402 232.04 175.57C239.264 176.027 246.749 175.699 253.991 175.772L253.991 199.742C250.196 199.75 232.607 199.39 230.182 200.147C228.745 201.562 226.873 209.723 225.713 212.053C225.882 211.714 222.959 218.153 223.309 217.075C219.034 230.226 211.493 221.171 231.963 240.965C226.198 246.715 220.11 252.25 214.265 258.065C199.013 243.53 204.086 239.738 187.896 248.117C184.289 249.983 176.543 251.398 173.76 253.434C172.47 258.83 175.374 269.391 172.293 274.208C171.133 274.343 166.234 274.201 164.699 274.2L147.25 274.208C147.237 270.487 147.655 256.251 146.827 253.726C145.39 251.818 131.065 248.679 128.304 246.284C127.97 245.995 122.866 243.218 122.312 242.939C118.202 244.871 109.209 253.841 105.745 257.411C101.77 252.684 94.0005 245.095 89.5559 240.965C94.0243 235.939 100.449 231.049 104.298 226C100.015 219.44 95.9859 213.761 93.4598 206.12C92.8554 204.291 92.4632 201.778 91.4132 200.213C89.8283 199.376 71.1384 199.736 67.7531 199.742L67.7531 175.772L82.2745 175.813C84.4047 175.823 90.9288 176.659 91.3943 173.944C93.1243 163.852 97.1129 155.793 102.448 147.212C100.227 142.719 91.0982 135.681 86.9729 131.318C90.8687 127.431 100.31 117.001 104.298 114.741C108.909 118.662 115.962 126.542 120.778 129.384C125.98 126.441 130.224 122.644 136.18 120.599C137.563 120.124 147.594 116.914 147.63 116.535C148.334 109.308 147.999 101.119 147.983 93.7569ZM161.883 226.255C184.833 225.428 202.738 206.102 201.814 183.155C200.89 160.209 181.488 142.385 158.546 143.407C135.74 144.422 118.047 163.683 118.965 186.492C119.884 209.302 139.07 227.077 161.883 226.255Z"/><path fill="#2B2D42" d="M156.81 138.108C182.589 136.091 205.125 155.349 207.15 181.128C209.176 206.907 189.924 229.448 164.146 231.482C138.357 233.516 115.803 214.255 113.777 188.465C111.75 162.674 131.019 140.127 156.81 138.108ZM161.883 226.255C184.833 225.428 202.738 206.102 201.814 183.155C200.89 160.209 181.488 142.385 158.546 143.407C135.74 144.422 118.047 163.683 118.965 186.492C119.884 209.302 139.07 227.077 161.883 226.255Z"/><path fill="#EDF2F4" d="M355.047 158.408C358.712 158.108 366.394 158.419 370.397 158.422L403.174 158.408C403.548 167.366 404.632 177.287 405.369 186.325L409.817 242.416C410.392 250.417 411.801 262.101 411.675 269.749L344.487 269.749C346.725 269.151 349.815 269.537 352.162 269.749C352.028 262.103 352.716 253.464 353.077 245.702L356.112 189.468C356.319 185.899 358.364 160.085 357.343 158.631C356.529 158.51 355.869 158.464 355.047 158.408Z"/><path fill="#EF233C" d="M173.76 292.661L173.945 292.835C173.655 298.082 173.755 303.609 173.754 308.893L173.76 333.404L94.4906 333.404L94.1473 333.27C96.0647 330.312 149.768 305.354 156.516 301.03C159.208 299.305 170.33 293.589 173.76 292.661Z"/><path fill="#EF233C" d="M316.653 231.236L317.157 231.393C318.01 232.735 317.697 265.309 317.694 269.749L244.188 269.749C242.588 269.819 244.341 268.909 244.85 268.641L287.533 246.623C295.708 242.412 309.318 236.197 316.653 231.236Z"/><path fill="#EDF2F4" d="M360.295 107.547C362.742 107.328 367.277 107.516 369.908 107.521L389.11 107.547L389.11 153.067L369.79 153.067C366.616 153.089 363.469 153.113 360.295 153.067L360.295 107.547Z"/><path fill="white" d="M360.295 153.067L360.295 107.547C362.429 107.877 367.265 107.511 369.79 107.547C370.484 120.248 370.592 140.961 369.79 153.067C366.616 153.089 363.469 153.113 360.295 153.067Z"/></svg>