<?xml version="1.0" encoding="utf-8" ?><svg xmlns="http://www.w3.org/2000/svg" xmlns:xlink="http://www.w3.org/1999/xlink" width="512" height="512" viewBox="0 0 512 512"><path fill="#541A36" d="M264.057 100.105C277.773 100.48 279.569 110.044 283.116 121.151C289.437 140.945 293.211 160.662 294.639 181.436L440.735 181.425C446.718 181.424 454.77 180.917 460.498 182.105C484.833 187.154 490.271 216.774 468.206 230.633C479.965 237.112 481.955 246.605 468.206 251.33C476.836 260.358 479.244 272.343 470.327 282.231C467.312 285.573 463.281 287.078 459.467 289.346C457.869 295.244 452.943 334.36 451.412 335.61C450.177 336.619 448.08 336.166 446.615 335.971C446.119 343.076 443.445 355.18 442.209 362.664L438.976 382.552C435.452 405.478 435.171 409.572 409.63 409.494L303.332 409.501C288.408 409.504 279.149 410.376 276.368 391.84C274.699 380.712 272.191 369.563 269.833 358.677C267.996 362.931 264.442 369.406 262.289 373.864C258.624 380.741 252.868 394.731 248.896 400.347C241.87 410.282 231.811 409.513 221.259 409.493L129.507 409.478C114.806 409.548 111.121 400.16 105.415 388.837C88.6795 355.628 71.8748 322.412 55.2901 289.125C53.7593 286.053 52.0163 282.458 50.2039 279.576L49.9663 279.202C43.7861 278.347 41.0363 279.113 35.8594 274.379C25.8667 266.177 30.5635 249.093 42.6612 246.519C48.964 245.178 62.2878 245.909 69.2853 245.923C68.3025 243.897 66.8611 240.927 67.4352 238.652C75.5255 206.59 88.6555 172.577 113.087 149.321C117.291 145.319 120.969 143.283 125.14 139.955L125.351 139.784C126.446 133.28 128.896 115.565 132.238 110.86C135.234 106.641 158.327 100.478 162.641 101.816C167.333 103.271 182.543 114.188 187.339 117.514C205.617 112.213 224.444 107.666 243.125 104.042C249.61 102.785 257.52 100.495 264.057 100.105ZM132.566 136.098C137.523 134.042 142.026 132.087 147.065 130.122C157.745 126.299 168.673 123.294 179.158 119.544C174.547 116.694 163.774 107.988 159.122 108.28L146.242 111.565C144.3 112.044 137.802 113.18 137.255 114.629C135.057 120.455 133.82 130.091 132.566 136.098Z"/><path fill="#B1AAA5" d="M278.001 128.85C278.656 128.749 278.373 128.662 278.893 129.016C289.097 163.467 290.963 202.177 287.011 237.884C285.809 248.749 268.7 245.382 260.47 245.376L85.4375 245.38C81.5714 245.507 75.1932 245.876 74.2835 240.775C73.0284 233.737 89.6159 191.601 94.4383 184.742C96.4089 181.939 109.536 176.61 113.454 174.894C166.101 151.844 221.428 138.021 278.001 128.85Z"/><path fill="#541A36" d="M225.129 160.353C259.889 157.355 268.035 205.805 236.403 215.445C231.879 216.824 216.244 216.243 210.927 216.244L168.875 216.235C159.859 216.283 154.221 216.347 146.763 210.464C136.022 201.992 133.803 186.063 142.599 175.404C151.602 164.789 161.521 165.992 174.239 164.825L225.129 160.353Z"/><path fill="white" d="M223.587 166.533C257.91 163.402 256.767 209.831 229.556 209.985L170.125 210.015C163.015 210.011 156.987 210.486 151.079 205.708C139.128 196.041 141.858 178.051 156.63 173.077C161.525 171.429 171.261 171.288 176.632 170.788L223.587 166.533Z"/><path fill="white" d="M85.4375 279.202L274.524 279.202C270.041 286.736 266.087 295.4 262.124 303.293L241.149 344.82L230.346 366.587C228.852 369.655 225.915 375.211 225.129 378.201L135.047 378.201C131.439 369.733 125.926 360.351 121.66 352L95.2502 299.485C92.77 294.452 86.6804 283.997 85.4375 279.202Z"/><path fill="#EF233C" d="M281.573 335.971L440.404 335.971C438.9 345.665 432.054 393.528 428.417 399.118C422.623 405.772 412.847 403.795 404.876 403.793L321.059 403.785C313.476 403.786 286.653 407.009 284.373 397.947C280.473 382.45 277.986 365.772 274.524 350.205C276.582 345.696 279.332 340.527 281.573 335.971Z"/><path fill="#EDF2F4" d="M416.262 187.68L441.7 187.673C446.933 187.673 455.131 187.156 460.024 188.406C481.488 193.893 480.393 223.157 458.785 227.268C454.617 228.061 449.619 227.735 445.328 227.736L354.125 227.732L294.639 227.732C295.498 213.756 295.354 201.716 295.344 187.68L416.262 187.68Z"/><path fill="#EDF2F4" d="M57.2645 279.202C62.8294 278.504 71.6866 279.212 77.5612 279.202C78.6574 280.639 81.592 286.717 82.5613 288.636L131.174 384.46L192.129 384.468C194.87 384.468 226.796 384.922 228.369 383.697C229.947 382.467 236.565 368.171 238.074 365.157L279.216 282.836C279.859 281.535 280.709 280.362 281.573 279.202C287.996 279.214 296.829 279.498 303.057 279.202L275.971 332.844C267.467 349.691 258.688 366.479 250.482 383.403C238.083 408.973 234.013 403.142 206.187 403.121L143.325 403.128C116.389 403.136 119.877 403.405 108.723 381.249L91.3201 346.696C81.3174 326.821 67.3263 302.788 59.0961 282.535L57.2645 279.202Z"/><path fill="#EDF2F4" d="M59.0961 282.535L57.2645 279.202C58.4721 279.26 59.2304 279.297 60.4301 279.202C60.4028 280.595 60.6915 282.078 59.0961 282.535Z"/><path fill="#EF233C" d="M46.7242 251.987L300.16 251.98C305.215 251.981 313.194 251.214 317.418 254.005C326.925 260.286 323.933 271.161 312.803 273.036L79.8929 273.041C69.8154 273.043 59.6916 273.131 49.614 272.934C33.8494 272.562 31.6208 254.292 46.7242 251.987Z"/><path fill="#5492BC" d="M323.464 251.33C326.596 251.536 331.356 251.354 334.647 251.345L441.744 251.317C446.146 251.311 450.482 251.122 454.909 251.723C472.438 254.103 479.111 282.921 448.183 283.356L307.931 283.356L309.682 279.202L309.929 279.208C327.206 279.595 335.863 263.518 323.464 251.33Z"/><path fill="#F0BD77" d="M296.032 307.41C300.938 307.644 307.746 307.414 312.857 307.413L449.875 307.41C448.845 314.783 447.029 322.379 446.615 329.775L439.281 329.775L284.937 329.775C287.676 322.328 292.178 314.328 296.032 307.41Z"/><path fill="#797478" d="M264.057 106.601C273.253 105.786 274.882 116.119 276.596 122.665C273.155 122.958 268.903 123.801 265.434 124.41C210.404 134.068 162.071 147.228 110.933 169.088C107.804 170.341 104.4 172.005 101.206 173.356C105.888 164.789 118.804 151.649 127.079 146.4C151.186 131.11 211.818 117.363 239.273 111.478C245.858 110.073 257.784 107.179 264.057 106.601Z"/><path fill="#EF233C" d="M294.639 234.08L447.899 234.083C456.964 234.079 465.002 232.463 471.038 241.266C472.379 243.221 469.504 244.167 468.206 244.627C461.542 245.731 452.245 245.391 445.215 245.389L291.454 245.38C293.295 240.934 293.626 238.799 294.639 234.08Z"/><path fill="#EF233C" d="M305.219 289.346C310.344 289.517 316.363 289.349 321.577 289.349L452.997 289.346C452.381 292.885 451.424 297.918 451.178 301.401L446.615 301.401L299.125 301.401C300.724 298.179 303.442 292.201 305.219 289.346Z"/></svg>