<?xml version="1.0" encoding="utf-8" ?><svg xmlns="http://www.w3.org/2000/svg" xmlns:xlink="http://www.w3.org/1999/xlink" width="512" height="512" viewBox="0 0 512 512"><path fill="#3F2836" d="M350.007 111.195L444.815 111.179C456.233 111.162 469.425 111.26 472.504 126.138C473.181 129.408 472.983 133.699 472.981 137.035L472.919 374.245C473.105 393.522 448.505 390.762 436.499 390.743L300.129 390.758C290.707 390.784 285.485 392.05 277.395 386.6C272.955 394.84 267.211 395.985 258.314 395.518C234.377 394.262 235.614 398.252 228.042 373.334C212.356 377.921 190.06 376.898 174.557 373.334C170.874 400.53 161.556 395.147 139.187 395.488C123.961 391.216 125.371 380.768 125.378 367.654L125.386 348.659C123.05 345.932 118.789 342.554 115.966 339.588C103.808 326.82 96.0759 314.186 90.2958 297.589C38.3979 314.823 17.2189 234.058 68.8606 222.497C74.5357 221.227 82.0494 220.27 87.2743 223.446C92.4555 207.77 102.282 194.002 113.287 181.875C107.941 168.468 111.683 159.411 109.498 145.891C107.872 135.832 116.885 138.289 124.104 139.524C136.417 141.629 146.267 148.394 153.08 158.372C186.34 140.704 232.313 144.979 263.007 165.891C265.757 167.765 268.654 170.045 271.497 171.732L271.751 171.88C271.964 159.836 270.178 134.746 272.245 123.861C275.242 108.085 294.927 111.188 306.627 111.187L350.007 111.195Z"/><path fill="#EDF2F4" d="M279.498 158.372L279.489 137.649C279.498 131.6 278.123 119.319 287.295 119.113C294.369 118.955 301.472 119.016 308.552 119.018L453.647 119.015C466.724 119.016 465.3 132.225 465.3 140.885L465.293 355.249C465.296 364.341 468.288 382.305 455.259 383.075C452.103 383.262 448.79 383.117 445.61 383.097L300.143 383.114C281.882 383.122 279.445 383.449 279.464 364.601L279.498 346.473C284.624 341.525 289.414 336.389 293.55 330.564C297.46 325.155 300.634 318.155 304.782 313.254L313.575 313.254C318.322 313.263 340.659 315.178 342.328 310.848C343.05 308.974 343.408 279.289 341.699 275.436C339.731 273.846 329.064 274.573 326.007 274.582L315.987 274.582C315.884 270.776 315.978 266.59 315.987 262.755L330.181 262.727C332.61 262.706 336.787 262.543 339.063 262.755C343.117 261.358 342.994 258.165 342.598 254.389C342.003 248.711 343.772 228.712 341.644 224.565C338.739 222.354 325.634 223.465 321.762 223.446C318.702 223.205 312.046 223.437 308.712 223.446C302.698 207.825 292.423 189.601 279.498 178.743C279.08 174.421 279.122 162.861 279.498 158.372Z"/><path fill="#3F2836" d="M300.209 192.322L300.19 150.819C300.368 132.79 306.363 134.584 322.376 134.654L431.633 134.646C441.633 134.706 445.825 138.03 445.804 148.171C445.773 163.214 445.746 178.264 445.791 193.306C445.834 207.291 430.92 205.217 421.488 205.181L314.364 205.173C306.139 204.702 300.334 202.12 300.209 192.322Z"/><path fill="#EDF2F4" d="M307.521 173.257L438.242 173.257L438.284 186.632C438.289 189.409 438.712 194.349 437.196 196.589C434.142 197.997 408.776 197.477 404.13 197.478L325.729 197.472C311.691 197.472 307.434 201.259 307.476 186.048L307.521 173.257Z"/><path fill="#EDF2F4" d="M309.722 142.318C316.69 141.985 327.066 142.311 334.245 142.311L416.163 142.313C422.396 142.314 437.419 139.67 438.216 146.61C438.079 151.079 440.289 165.492 436.312 165.685L307.521 165.685C307.523 160.464 305.494 144.185 309.722 142.318Z"/><path fill="#3F2836" d="M339.063 325.214C340.984 325.605 342.464 326.569 342.408 328.663C341.275 371.16 351.68 362.046 312.479 363.091C297.647 363.486 301.705 360.924 301.24 348.659C301.427 344.656 300.32 328.339 302.264 326.159C304.043 324.164 309.939 325.183 312.338 325.187L329.593 325.225C332.247 325.242 336.371 325.442 338.832 325.236L339.063 325.214Z"/><path fill="#EF233C" d="M308.712 332.793L335.038 332.793L335.038 355.384L308.712 355.384L308.712 332.793Z"/><path fill="#8D99AE" d="M279.498 178.743C279.08 174.421 279.122 162.861 279.498 158.372C279.803 163.054 279.468 169.968 279.498 174.906C285.858 177.549 299.388 192.693 300 192.588L300.209 192.322C300.334 202.12 306.139 204.702 314.364 205.173C315.043 209.195 320.602 216.67 321.762 223.446C318.702 223.205 312.046 223.437 308.712 223.446C302.698 207.825 292.423 189.601 279.498 178.743Z"/><path fill="#8D99AE" d="M304.782 313.254L313.575 313.254L313.331 313.591C310.25 317.889 308.82 321.016 304.782 325.214C308.374 325.095 337.967 324.869 339.063 325.214L338.832 325.236C336.371 325.442 332.247 325.242 329.593 325.225L312.338 325.187C309.939 325.183 304.043 324.164 302.264 326.159C300.32 328.339 301.427 344.656 301.24 348.659C300.594 342.801 301.233 336.469 301.24 330.564L293.55 330.564C297.46 325.155 300.634 318.155 304.782 313.254Z"/><path fill="#8D99AE" d="M315.987 262.755L330.181 262.727C332.61 262.706 336.787 262.543 339.063 262.755C336.978 263.051 328.613 262.745 326.007 262.755L326.007 274.582L315.987 274.582C315.884 270.776 315.978 266.59 315.987 262.755Z"/><path fill="#3F2836" d="M402.083 274.582L426.519 274.571C432.52 274.571 442.309 272.238 442.397 279.228C442.477 285.556 442.442 291.896 442.441 298.224L442.474 351.632C442.482 355.187 443.702 360.803 440.405 363.069C430.156 364.031 415.251 362.956 404.391 362.944C398.697 362.938 400.424 355.146 400.422 350.628L400.373 281.93C400.374 278.836 399.964 276.693 402.083 274.582Z"/><path fill="#EF233C" d="M407.93 281.998L434.826 281.998L434.826 355.384L407.93 355.384L407.93 281.998Z"/><path fill="#3F2836" d="M436.312 223.446C437.622 223.379 441.874 223.147 441.934 225.064C442.137 231.461 443.668 257.312 441.736 261.852C439.475 263.398 431.835 262.774 428.803 262.768L406.938 262.755C398.409 263.504 400.42 259.704 400.411 251.768L400.408 238.51C400.419 222.079 397.513 223.447 415.126 223.44L436.312 223.446Z"/><path fill="#EF233C" d="M407.93 230.959L434.826 230.959L434.826 255.157C433.369 255.319 428.136 255.178 426.337 255.176L407.93 255.157L407.93 230.959Z"/><path fill="#3F2836" d="M352.661 223.446C357.389 223.443 390.835 222.093 391.96 224.894C392.399 225.988 392.461 255.673 392.215 259.304C392.067 261.492 391.794 262.556 389.405 262.755C383.495 262.751 352.685 264.877 350.65 260.479C349.773 258.583 347.811 225.639 352.661 223.446Z"/><path fill="#EF233C" d="M380.342 230.959C381.993 230.864 383.35 230.909 385 230.959L385 255.157L362.968 255.157L357.502 255.157C357.51 247.569 357.219 238.386 357.502 230.959L380.342 230.959Z"/><path fill="#3F2836" d="M352.661 274.582C357.556 274.322 388.806 274.189 391.252 275.272C393.474 279.248 391.634 301.841 392.192 307.619C392.469 310.495 392.27 312.536 389.405 313.254L364.127 313.263C344.361 313.322 350.774 311.723 350.055 291.645C349.896 287.185 348.312 276.677 352.661 274.582Z"/><path fill="#EF233C" d="M357.502 281.998L385 281.998L385 305.741C376.476 306.025 366.209 305.739 357.502 305.741L357.502 281.998Z"/><path fill="#3F2836" d="M352.661 325.214L376.69 325.193C379.088 325.193 390.383 324.538 391.734 326.624C392.623 329.865 392.461 352.701 392.255 358.446C392.168 360.881 391.704 362.308 389.405 363.069L366.44 363.088C363.059 363.088 353.224 363.712 350.807 361.765C349.155 357.888 349.967 335.499 349.983 330.361C349.99 328.016 350.544 326.303 352.661 325.214Z"/><path fill="#EF233C" d="M357.502 332.793L385 332.793L385 355.384L357.502 355.384L357.502 332.793Z"/><path fill="#6D7589" d="M199.121 155.218C232.478 152.142 269.776 174.314 288.413 200.861C345.215 281.767 273.864 385.548 177.445 366.05C140.04 357.33 109.693 331.052 97.2639 294.448C123.585 277.1 122.378 237.606 94.2185 225.725C97.886 215.829 109.743 195.414 117.922 188.75C132.853 208.877 162.586 195.613 156.209 165.685C169.675 159.059 184.1 155.428 199.121 155.218Z"/><path fill="#3F2836" d="M194.696 172.475C218.402 170.94 244.863 182.161 260.984 199.421C263.855 202.495 276.887 215.965 272.342 219.822C269.441 222.283 266.447 218.891 264.851 216.632C236.155 171.411 184.591 182.261 183.293 180.25C177.758 171.671 189.751 172.581 194.696 172.475Z"/><path fill="#3F2836" d="M133.012 210.489C141.312 209.152 149.123 214.796 150.461 223.095C151.799 231.394 146.156 239.206 137.857 240.545C129.557 241.883 121.743 236.239 120.405 227.939C119.068 219.639 124.712 211.826 133.012 210.489Z"/><path fill="#EDF2F4" d="M133.913 217.961C138.028 217.181 141.995 219.885 142.773 224C143.55 228.115 140.842 232.081 136.726 232.854C132.615 233.627 128.656 230.923 127.88 226.813C127.103 222.703 129.804 218.741 133.913 217.961Z"/><path fill="#EF233C" d="M74.2813 229.603C91.4752 227.707 106.935 240.149 108.759 257.35C110.583 274.552 98.0772 289.96 80.8681 291.712C63.7599 293.455 48.4622 281.038 46.6486 263.937C44.835 246.836 57.1881 231.487 74.2813 229.603Z"/><path fill="#EF233C" d="M117.922 146.227C137.706 148.148 160.453 168.025 145.273 186.531C138.75 193.103 128.511 190.194 123.212 183.683C117.327 176.454 116.893 156.127 117.922 146.227Z"/><path fill="#6D7589" d="M271.751 352.972L271.908 353.117C272.142 353.969 271.978 355.794 271.909 356.73C270.574 371.649 278.315 389.882 256.929 388.01C251.115 387.5 243.556 389.968 239.526 384.779C237.718 381.612 236.293 375.34 235.336 371.632C250.931 365.206 257.725 361.692 271.751 352.972Z"/><path fill="#6D7589" d="M132.868 354.336C145.897 361.778 152.139 366.795 167.595 371.632C166.522 376.515 166.504 380.163 164.213 384.779C160.239 389.803 149.65 387.835 143.403 388.034C131.679 388.407 132.847 377.832 132.838 369.636L132.868 354.336Z"/><path fill="#EF233C" d="M314.364 281.998L323.278 281.998L335.038 281.998L335.038 305.741L319.391 305.741L307.521 305.741C310.233 298.558 313.046 289.54 314.364 281.998Z"/><path fill="#D61927" d="M314.364 281.998L323.278 281.998C322.458 286.733 317.27 305.255 317.357 305.39L319.391 305.741L307.521 305.741C310.233 298.558 313.046 289.54 314.364 281.998Z"/><path fill="#EF233C" d="M311.535 230.959C316.323 231.272 322.496 231.028 327.39 230.959C329.938 230.978 332.491 231.013 335.038 230.959L335.038 255.157L324.752 255.157L315.987 255.157C314.831 246.34 313.512 239.555 311.535 230.959Z"/><path fill="#D61927" d="M311.535 230.959C316.323 231.272 322.496 231.028 327.39 230.959C325.96 231.241 324.736 231.063 323.278 230.959C323.712 239.253 325.359 246.332 324.752 255.157L315.987 255.157C314.831 246.34 313.512 239.555 311.535 230.959Z"/></svg>