<?xml version="1.0" encoding="utf-8" ?><svg xmlns="http://www.w3.org/2000/svg" xmlns:xlink="http://www.w3.org/1999/xlink" width="512" height="512" viewBox="0 0 512 512"><path fill="#2B2D42" d="M138.094 50.9013C193.948 46.9433 236.11 110.928 208.977 162.46C205.957 168.196 202.192 173.17 198.18 178.323C206.484 189.73 216.597 203.178 224.001 215.091C231.331 204.258 240.486 192.751 248.45 182.333L288.506 129.228C296.998 118.01 306.231 106.627 314.182 95.0072C293.106 78.6826 302.701 79.4897 313.734 61.2755C322.372 47.0147 328.157 51.8675 338.249 59.2201C343.094 62.8348 347.78 66.6604 352.449 70.425L380.382 92.7092C390.282 100.627 400.799 108.463 410.397 116.773C420.057 125.136 405.281 138.997 399.673 146.227C390.858 159.035 383.04 150.786 374.637 144.186C367.215 138.355 360 132.249 352.532 126.451C335.711 149.574 317.417 172.453 300.302 195.432L262.505 245.899C259.716 249.569 256.604 253.859 253.63 257.328C258.196 265.209 265.863 274.651 271.255 282.43C287.048 274.383 291.532 282.494 300.026 294.44L364.044 385.565C368.541 391.86 379.052 405.072 380.816 412.217C388.696 444.134 356.601 472.034 326.539 454.483C320.334 450.766 316.972 445.743 312.886 440.046L233.204 326.593C226.84 317.463 230.94 309.306 239.179 303.457C237.469 300.942 235.491 297.897 233.392 295.771C230.103 299.606 227.226 304.168 224.161 308.273C213.858 322.077 193.771 341.102 201.585 359.851C217.471 397.968 194.41 438.987 153.677 444.729C83.7862 454.581 57.8996 352.598 125.326 327.063C149.6 317.871 147.733 328.074 165.308 304.431L178.429 286.664C186.7 275.312 195.094 264.413 203.631 253.29C194.932 237.56 176.691 214.134 165.816 199.09C107.791 218.768 53.6032 165.061 68.6287 107.868C69.1155 106.015 71.8872 95.4553 75.8205 99.7809C79.2984 103.833 82.4508 108.202 85.7404 112.419L110.507 144.613C124.456 144.616 139.632 144.307 153.455 144.613C158.951 131.991 163.564 118.744 169.747 106.465L138.187 64.8292C132.868 57.9171 125.092 51.601 138.094 50.9013ZM118.878 368.921L118.878 400.341C120.735 401.425 145.887 416.183 145.714 416.174C149.779 414.27 169.503 402.996 172.63 400.341C173.015 390.906 172.628 378.623 172.63 368.921L154.283 358.201C151.773 356.737 148.209 354.363 145.714 353.21L128.066 363.331C125.4 364.884 121.245 367.145 118.878 368.921ZM310.86 83.9723C317.181 76.3844 322.348 67.376 329.354 60.5177C325.215 57.0395 323.798 58.6719 320.821 62.6002C316.25 68.6314 304.137 79.0977 310.86 83.9723ZM172.63 196.985C175.675 202.33 182.845 211.835 186.715 217.466L197.058 232.321C198.912 235 201.57 239.2 203.631 241.455C204.625 245.421 240.055 293.271 244.456 300.033C246.003 299.2 250.983 296.266 251.75 294.84C250.129 289.078 243.793 282.011 240.211 277.06L224.895 255.577C214.534 240.993 204.48 225.606 193.941 211.228L185.248 198.93C183.844 196.961 181.714 194.255 180.561 192.227C177.904 193.678 175.086 195.223 172.63 196.985ZM140.442 57.2432C142.272 59.9886 143.383 61.3118 145.714 63.6516C154.603 62.1208 169.511 69.9405 176.846 74.8788C206.063 94.5489 213.839 134.398 193.648 163.039C159.903 210.904 86.7854 191.915 79.1367 134.588C78.6502 130.942 77.7351 118.207 79.8732 115.249C78.5649 113.341 76.1806 110.45 74.6889 108.707C57.6257 180.518 142 226.919 192.553 174.68C235.399 130.405 198.761 55.203 140.442 57.2432Z"/><path fill="#B7B7BD" d="M206.496 258.961C210.873 262.859 216.679 271.605 220.049 276.519C223.467 281.107 226.839 285.602 230.087 290.316C223.108 298.495 216.705 307.084 210.419 315.569C188.869 344.485 191.191 341.594 198.821 372.464C209.335 415 164.261 451.945 125.823 434.895C76.7386 415.01 84.1287 343.017 132.993 331.43C154.873 326.242 156.621 327.193 169.701 309.463L195.609 274.57C198.48 270.773 204.456 263.288 206.306 259.369L206.496 258.961ZM118.878 368.921L118.878 400.341C120.735 401.425 145.887 416.183 145.714 416.174C149.779 414.27 169.503 402.996 172.63 400.341C173.015 390.906 172.628 378.623 172.63 368.921L154.283 358.201C151.773 356.737 148.209 354.363 145.714 353.21L128.066 363.331C125.4 364.884 121.245 367.145 118.878 368.921Z"/><path fill="#2B2D42" d="M112.518 403.449C112.207 399.919 112.343 366.46 112.905 365.492C114.194 363.271 139.512 348.489 145.028 347.105C148.619 346.204 157.237 352.656 160.572 354.56C164.764 356.965 174.09 361.763 177.344 364.741C180.094 367.258 179.047 401.893 178.252 403.359C176.405 406.77 148.913 422.319 146.809 422.664C144.536 423.036 142.316 421.397 140.442 420.338L125.546 411.744C121.711 409.547 115.518 406.351 112.518 403.449ZM118.878 368.921L118.878 400.341C120.735 401.425 145.887 416.183 145.714 416.174C149.779 414.27 169.503 402.996 172.63 400.341C173.015 390.906 172.628 378.623 172.63 368.921L154.283 358.201C151.773 356.737 148.209 354.363 145.714 353.21L128.066 363.331C125.4 364.884 121.245 367.145 118.878 368.921Z"/><path fill="#8D99AE" d="M220.049 276.519C223.467 281.107 226.839 285.602 230.087 290.316C223.108 298.495 216.705 307.084 210.419 315.569C188.869 344.485 191.191 341.594 198.821 372.464C209.335 415 164.261 451.945 125.823 434.895C128.936 430.879 136.72 423.547 140.442 420.338C142.316 421.397 144.536 423.036 146.809 422.664C148.913 422.319 176.405 406.77 178.252 403.359C179.047 401.893 180.094 367.258 177.344 364.741C174.09 361.763 164.764 356.965 160.572 354.56C161.984 352.43 163.831 349.994 165.42 347.954C183.659 324.534 200.985 299.169 220.049 276.519Z"/><path fill="#EF233C" d="M269.843 291.195C286.467 280.095 287.684 288.014 297.262 301.594L363.331 395.581C371.26 406.772 377.783 413.309 374.729 428.374C371.607 443.767 357.938 455.714 341.647 453.379C340.7 453.394 339.726 453.381 338.776 453.379C324.802 449.068 320.327 440.12 312.573 428.892L255.489 346.71C249.529 338.219 230.694 319.553 240.282 310.661C248.515 304.308 260.987 296.793 269.843 291.195Z"/><path fill="#EF0E22" d="M269.843 291.195C286.467 280.095 287.684 288.014 297.262 301.594L363.331 395.581C371.26 406.772 377.783 413.309 374.729 428.374C371.607 443.767 357.938 455.714 341.647 453.379C354.692 437.443 356.407 443.508 362.416 418.393C358.198 420.283 353.668 410.319 351.329 406.949L293.071 324.126C292.019 323.403 271.258 293.944 269.843 291.195Z"/><path fill="#2B2D42" d="M293.071 324.126C294.972 320.319 297.427 319.186 300.757 322.317C305.054 328.957 309.363 335.016 313.789 341.521L343.397 384.333C349.49 392.985 358.57 404.722 363.796 413.594C364.248 415.834 363.704 416.413 362.416 418.393C358.198 420.283 353.668 410.319 351.329 406.949L293.071 324.126Z"/><path fill="#EF233C" d="M300.757 322.317C306.488 320.568 325.086 353.565 329.141 359.585C339.496 374.955 351.382 389.256 361.602 404.676C363.529 407.584 364.338 410.119 363.796 413.594C358.57 404.722 349.49 392.985 343.397 384.333L313.789 341.521C309.363 335.016 305.054 328.957 300.757 322.317Z"/><path fill="#FC8A89" d="M240.282 310.661C255.376 330.695 268.504 352.783 282.9 373.625L318.361 424.81C324.392 433.374 334.373 445.306 338.776 453.379C324.802 449.068 320.327 440.12 312.573 428.892L255.489 346.71C249.529 338.219 230.694 319.553 240.282 310.661Z"/><path fill="#2B2D42" d="M269.843 340.194C273.168 340.434 280.839 353.745 282.779 356.553L320.875 411.19C322.449 413.419 334.57 429.008 333.88 431.41C333.48 432.803 332.262 434.05 331.099 434.895C325.18 433.416 298.936 391.847 293.552 384.146L275.922 359.23C271.052 352.364 261.269 344.52 269.843 340.194Z"/><path fill="#EDF2F4" d="M145.714 63.6516C154.603 62.1208 169.511 69.9405 176.846 74.8788C206.063 94.5489 213.839 134.398 193.648 163.039C159.903 210.904 86.7854 191.915 79.1367 134.588C78.6502 130.942 77.7351 118.207 79.8732 115.249C85.2331 121.882 105.127 149.161 107.185 150.269C109.737 151.644 154.309 151.143 156.698 150.369C159.667 149.408 162.187 140.183 163.347 137.377C167.283 127.863 172.018 115.367 176.782 106.465L176.389 105.629C174.837 102.282 170.802 97.3298 168.485 94.2539L153.321 74.0405C150.759 70.6078 147.913 67.3057 145.714 63.6516Z"/><path fill="#B7B7BD" d="M319.227 99.5199C324.163 103.096 329.596 107.512 334.46 111.29C338.079 114.194 344.555 119.212 347.731 122.319C335.122 137.9 322.207 155.828 310.126 171.974L267.058 228.81C261.38 236.333 255.434 244.952 249.708 252.178C246.293 247.079 242.214 242.048 239.179 236.738C236.492 233.334 230.153 224.044 228.067 220.588C231.259 215.403 238.44 206.451 242.323 201.316L306.981 115.706C311.057 110.363 315.036 104.749 319.227 99.5199Z"/><path fill="#8D99AE" d="M334.46 111.29C338.079 114.194 344.555 119.212 347.731 122.319C335.122 137.9 322.207 155.828 310.126 171.974L267.058 228.81C261.38 236.333 255.434 244.952 249.708 252.178C246.293 247.079 242.214 242.048 239.179 236.738C248.15 226.486 256.5 213.58 264.938 202.7L303.204 152.508C313.57 138.88 324.303 125.048 334.46 111.29Z"/><path fill="#B7B7BD" d="M329.354 60.5177C341.263 68.9947 354.874 80.8455 366.581 90.0253L394.103 111.801C399.896 116.446 410.943 121.357 405.412 128.184C399.803 135.108 393.065 150.931 385.495 144.728L318.022 89.9068C316.091 88.3464 312.545 85.6382 310.86 83.9723C317.181 76.3844 322.348 67.376 329.354 60.5177Z"/><path fill="#EDF2F4" d="M186.023 188.692C188.338 187.178 191.62 184.496 193.941 182.742C195.143 185.205 197.498 188.32 199.122 190.656L235.275 242.31C238.831 247.319 245.05 255.212 247.521 260.437C253.091 265.551 260.696 278.846 266.082 285.704C263.498 287.533 260.739 289.205 258.32 291.195C252.581 283.499 247.356 275.699 241.578 267.955C240.325 266.315 239.061 264.409 237.888 262.692C221.104 238.125 201.974 213.598 186.023 188.692Z"/><path fill="white" d="M241.578 267.955C248.4 269.555 248.497 276.607 251.617 277.429C253.524 271.617 244.853 267.488 248.642 263.593L249.628 264.085L249.721 263.908C248.908 262.876 248.221 262.014 247.327 261.036L247.521 260.437C253.091 265.551 260.696 278.846 266.082 285.704C263.498 287.533 260.739 289.205 258.32 291.195C252.581 283.499 247.356 275.699 241.578 267.955Z"/><path fill="#2B2D42" d="M324.471 196.985C325.747 196.983 347.641 215.284 349.471 217.602C352.597 221.564 356.702 233.349 359.67 238.646C363.458 245.409 371.973 254.247 377.273 260.437C383.634 256.313 389.216 253.621 394.385 260.828C400.422 269.246 406.137 277.898 412.118 286.355L432.279 315.11C436.267 320.85 441.898 327.654 444.311 334.095C451.988 354.59 439.32 371.38 420.558 378.228C392.513 377.636 391.498 370.061 375.993 347.984L341.77 298.989C336.107 291.022 339.375 287.193 346.602 282.43C344.143 271.475 336.04 257.364 327.145 250.763C325.217 249.332 319.036 245.471 318.343 244.359C314.76 238.615 304.722 218.545 302.77 212.7C310.03 207.618 317.313 202.229 324.471 196.985Z"/><defs><linearGradient id="gradient_0" gradientUnits="userSpaceOnUse" x1="383.76129" y1="350.10739" x2="420.53577" y2="318.55692"><stop offset="0" stop-color="#9E9EA6"/><stop offset="1" stop-color="#C2C2C9"/></linearGradient></defs><path fill="url(#gradient_0)" d="M396.445 290.316C397.118 291.574 398.933 295.85 398.991 297.173C389.135 299.595 399.151 308.116 402.857 313.44L423.042 342.393C426.436 347.205 432.758 355.625 435.328 360.384C429.478 367.613 427.65 367.454 420.558 372.308C418.969 369.248 416.302 365.644 414.267 362.746L387.968 325.835C385.344 322.149 382.225 317.004 379.055 313.951C378.271 313.198 372.121 313.905 375.151 318.521C377.858 322.644 380.876 326.59 383.735 330.618L401.77 356.243C405.185 361.138 409.643 367.236 412.544 372.308C395.861 369.492 392.288 360.395 383.321 347.619L367.416 324.736C365.205 321.525 362.497 317.948 360.548 314.648C363.712 312.807 367.524 310.026 370.534 307.906L385.454 297.378C388.708 295.085 392.883 291.826 396.445 290.316Z"/><path fill="#EDF2F4" d="M324.471 204.748C328.003 207.335 343.351 219.946 344.509 221.927C351.797 234.387 352.061 240.563 362.131 252.418L371.863 263.9C368.561 267.024 360.31 272.236 356.1 275.522C354.904 276.506 353.765 277.399 352.532 278.336C345.341 264.071 343.006 254.708 329.615 244.516C318.75 236.247 316.387 228.238 310.86 215.091C314.352 212.058 320.602 207.609 324.471 204.748Z"/><path fill="#B7B7BD" d="M385.58 262.476C390.038 262.575 396.87 275.327 399.969 279.639C385.681 288.426 372.207 298.847 358.498 308.551C355.584 310.489 346.597 295.057 345.008 292.193C347.938 288.633 356.013 283.28 359.861 280.585L375.915 269.317C378.396 267.579 383.289 263.698 385.58 262.476Z"/><path fill="#8D99AE" d="M396.445 290.316C398.689 288.072 400.359 286.816 403.314 285.704C409.819 291.842 422.721 312.348 428.16 320.336C436.622 332.762 442.264 338.21 438.813 354.56C436.4 349.906 433.515 346.313 430.563 342.057C420.133 327.019 409.702 312.013 398.991 297.173C398.933 295.85 397.118 291.574 396.445 290.316Z"/></svg>