<?xml version="1.0" encoding="utf-8" ?><svg xmlns="http://www.w3.org/2000/svg" xmlns:xlink="http://www.w3.org/1999/xlink" width="512" height="512" viewBox="0 0 512 512"><path fill="#4C2335" d="M263.896 91.5508C265.336 91.6681 270.055 93.2063 271.641 93.7029L458.811 150.332C459.899 150.652 480.998 155.668 471.175 159.117C447.595 167.397 420.792 175.105 396.815 182.273C396.807 192.018 395.423 200.215 393.856 209.786C429.556 222.868 425.731 216.763 425.726 251.869L425.735 328.715C425.773 357.654 425.73 354.291 400.727 364.146L367.386 377.307C340.287 387.913 313.379 399.632 285.689 408.651C283.448 421.289 257.575 421.387 249.517 414.926C247.782 413.535 246.111 411.678 244.533 410.103C240.179 406.04 182.432 384.782 172.497 381.043C152.513 373.519 132.732 365.301 112.849 357.531C99.1492 352.177 103.008 334.192 103.015 321.477L103.017 247.522C103.01 233.328 99.1648 224.813 113.805 218.875C123.136 215.091 132.433 211.086 141.824 207.405C141.705 200.332 141.812 192.996 141.824 185.904C138.135 184.46 133.079 183.077 129.186 181.816L104.268 173.777C90.2833 169.379 76.4311 164.519 62.3793 160.337L62.3793 212.81C68.1014 214.901 82.4864 245.337 81.4657 247.288C80.2929 249.531 74.9888 248.817 72.651 248.814L45.375 248.826C40.6002 248.859 37.4954 247.746 40.1665 242.491C44.9654 233.049 49.9286 223.682 54.764 214.261C55.4083 213.005 56.7963 213.1 56.6648 211.643C56.5606 207.696 56.557 203.754 56.5545 199.808L56.5123 157.539C56.5125 155.681 57.7489 154.604 59.4046 154.087L236.891 99.6646C244.276 97.3096 256.551 93.1916 263.896 91.5508ZM122.46 221.827C124.815 222.716 126.514 223.286 128.936 223.961C133.228 226.29 137.383 227.321 141.824 229.126C141.825 227.236 142.45 214.576 141.824 213.977C135.328 216.554 128.895 219.102 122.46 221.827Z"/><path fill="#8D99AE" d="M263.896 97.7667C265.24 97.7956 274.184 100.735 275.992 101.281L386.723 134.974C410.392 141.997 435.332 149.08 458.709 156.781C454.448 158.345 448.436 159.839 443.929 161.249L412.246 171.309C406.919 172.989 400.23 174.899 395.195 177.02C388.074 163.405 373.108 155.973 360.157 168.28C356.183 166.682 349.518 165.328 345.19 164.444L262.903 148.315C258.837 147.513 251.608 145.63 247.967 145.751C240.45 146 236.3 154.213 241.116 160.321C245.449 165.819 249.802 165.709 255.742 166.959L326.093 180.865C334.032 182.43 343.02 184.717 350.848 185.904C350.415 188.621 350.58 189.871 350.848 192.563C345.836 193.085 335.68 196.924 330.369 198.615L280.505 214.813C276.359 216.147 268.976 219.341 265.069 219.73C263.563 219.881 125.943 174.261 116.553 171.264C101.308 166.398 85.761 162.116 70.68 156.781C75.7388 155.859 86.0195 152.416 91.1524 150.802L209.689 114.24C227.219 108.833 246.263 102.665 263.896 97.7667Z"/><path fill="#EDF2F4" d="M120.78 227.88C124.138 228.331 131.83 231.594 135.263 232.929L244.533 275.491C244.18 287.624 244.532 301.591 244.533 313.863L244.533 390.644C243.097 390.65 220.254 380.978 217.422 379.844L154.091 354.81C143.894 350.807 130.97 345.323 120.78 341.841L120.78 227.88Z"/><path fill="#656667" d="M147.492 187.622C150.739 188.287 155.004 189.71 158.226 190.778C189.804 201.242 221.409 211.681 252.901 222.399C256.799 223.725 260.828 225.494 264.779 226.492C270.823 225.17 276.844 222.474 282.745 220.57L328.639 205.605C335.229 203.499 342.846 200.693 349.413 199.103C347.817 203.768 347.003 210.479 346.233 215.466L342.418 241.559C342.18 243.332 341.817 245.014 341.458 246.764C320.571 256.265 297.232 264.361 275.845 273.19C261.083 279.285 257.161 273.822 245.072 269.439C233.471 265.232 222.209 260.572 210.812 255.885C189.91 247.29 168.379 239.985 147.492 231.351L147.492 187.622Z"/><path fill="#EDF2F4" d="M407.567 229.126L407.834 229.121C408.576 230.554 408.268 286.104 408.269 291.532L408.277 323.527C408.278 329.447 408.557 335.969 407.95 341.826C407.494 346.222 307.369 380.458 286.402 390.644C286.226 377.877 286.396 364.675 286.398 351.861L286.402 275.491L288.79 274.246C297.407 270.646 305.884 267.485 314.489 263.978L329.482 258.027C333.061 256.614 336.941 254.966 340.583 253.833C338.031 272.231 335.208 290.6 332.846 309.022C331.286 321.193 330.247 319.687 334.509 330.939C336.745 336.841 344.284 359.908 346.378 362.941C347.495 364.559 348.949 364.433 350.392 363.286C351.99 362.016 376.229 330.373 376.877 328.732C377.965 325.979 378.113 322.49 378.507 319.572C382.343 291.214 387.163 263.005 390.833 234.616C395.458 233.035 403.107 229.9 407.567 229.126Z"/><path fill="#EF233C" d="M360.157 198.329C367.747 196.209 382.211 200.967 389.719 203.106C388.057 208.095 387.21 216.687 386.459 222.121L382.058 254.645C378.934 277.695 374.776 301.226 372.088 324.174C370.844 324.087 370.215 324.097 368.968 324.174C358.534 321.791 348.772 320.633 338.24 318.913C337.295 309.055 341.406 288.596 343.027 278.119L350.678 225.17C351.9 216.591 353.729 206.853 354.582 198.329C355.795 198.193 358.739 198.328 360.157 198.329Z"/><path fill="#EDF2F4" d="M280.015 278.356L280.346 278.361C281.143 280.002 280.732 380.879 280.706 392.204C274.949 401.301 259.961 402.707 252.024 396.321C249.012 391.591 250.24 384.574 250.243 379.192L250.251 278.356C263.381 283.086 267.41 282.062 280.015 278.356Z"/><path fill="#EF233C" d="M115.179 224.773C115.542 225.546 115.038 334.346 115.179 345.765C139.381 354.854 163.822 364.626 187.941 374.06L225.959 389.269C232.221 391.791 238.321 393.993 244.533 396.711C244.01 399.408 244.26 400.892 244.533 403.603L240.061 401.866C230.355 397.75 219.682 393.839 209.814 389.921L131.041 358.501C105.287 348.54 108.712 351.807 108.708 325.453L108.588 232.1C108.535 227.145 111.034 225.976 115.179 224.773Z"/><path fill="#EF233C" d="M413.985 223.961C422.477 225.783 420.024 235.153 420.012 242.464L419.999 265.147C420 292.712 419.645 321.105 420.004 348.602C416.585 352.469 410.127 354.348 405.388 356.276L345.905 379.841C337.505 383.2 329.578 386.529 321.063 389.759L302.68 396.68C298.433 398.263 293.795 399.81 289.798 401.866C288.086 402.237 287.327 402.39 285.689 403.034C285.652 400.828 285.687 398.535 285.689 396.321C316.11 386.804 348.803 372.622 378.423 360.761L397.328 353.166C413.994 346.367 413.981 347.436 413.992 329.334L413.963 236.561C413.952 232.759 413.63 228.103 413.949 224.367L413.985 223.961Z"/><path fill="#FDA004" d="M247.29 151.754C252.491 151.502 269.141 155.652 274.766 156.743L332.402 167.979C340.122 169.484 347.991 171.267 355.698 172.64C354.594 174.792 353.393 176.975 352.269 179.134C351.457 180.869 342.175 178.066 340.013 177.641L250.718 159.983C246.543 159.155 242.672 154.208 247.29 151.754Z"/><path fill="#FDA004" d="M372.088 168.28C390.415 166.54 391.429 184.232 389.719 197.52C386.34 195.985 381.63 194.81 377.997 193.903C368.648 191.991 365.087 192.112 355.698 192.563C356.278 181.39 360.328 171.127 372.088 168.28Z"/><path fill="#FEE387" d="M338.24 324.824C347.322 325.71 360.041 328.096 368.968 329.708C365.446 334.611 361.506 339.575 357.81 344.373C354.984 347.733 352.422 351.578 349.413 355.093C347.41 350.298 338.885 328.78 338.24 324.824Z"/><path fill="#EF233C" d="M59.6798 218.161C62.2364 220.387 72.4729 239.548 73.9444 243.253L60.7607 243.253L46.4405 243.253C49.5631 235.03 55.1902 225.81 59.6798 218.161Z"/><path fill="#EF233C" d="M280.015 400.961C280.203 403.117 280.189 406.514 280.015 408.651C273.861 415.139 258.643 415.849 252.024 410.103C249.977 407.708 250.258 406.134 250.251 403.034C262.155 405.791 268.795 408.278 280.015 400.961Z"/><path fill="#8D99AE" d="M393.856 216.093C396.707 217.048 405.827 220.647 408.268 221.827C406.41 222.529 404.947 223.13 403.146 223.961C399.669 224.903 395.224 226.641 391.73 227.88C392.58 222.918 392.118 221.351 393.856 216.093Z"/></svg>