<?xml version="1.0" encoding="utf-8" ?><svg xmlns="http://www.w3.org/2000/svg" xmlns:xlink="http://www.w3.org/1999/xlink" width="512" height="512" viewBox="0 0 512 512"><path fill="#2B2D42" d="M255.976 62.2322C257.8 62.2236 268.648 71.6431 270.86 73.2474C316.119 106.068 372.199 124.006 428.152 122.733C454.425 122.135 441.301 123.531 444.484 146.907C443.687 265.525 393.482 391.802 277.205 440.071C251.38 450.791 257.742 449.562 231.894 439.001C179.93 415.813 141.485 377.557 113.15 329.066C109.748 330.448 90.4458 339.339 88.563 338.631C86.5047 337.858 65.3069 294.22 66.8497 290.912C67.7646 288.949 88.1382 280.543 91.3457 279.449C73.415 243.955 67.2378 167.972 67.4133 127.838C66.999 121.181 71.2885 122.397 75.9614 122.619C137.991 125.564 200.175 106.57 248.629 67.4282C250.79 65.6831 253.387 63.1664 255.976 62.2322ZM177.558 253.956C180.746 253.398 189.846 248.877 193.396 247.259L247.471 222.82C250.565 221.442 274.047 211.762 275.055 209.415C277.329 204.123 274.204 199.463 268.753 199.777C266.003 200.516 263.552 201.74 260.97 202.908L194.869 232.745C187.733 235.913 179.933 239.164 173.067 242.771C168.276 245.289 170.177 254.733 177.558 253.956Z"/><path fill="#EDF2F4" d="M255.976 109.193C257.577 109.805 262.822 113.669 264.664 114.79C309.931 142.318 351.124 157.005 405.045 160.443C401.316 262.163 358.388 369.452 255.976 407.015C216.627 392.942 167.199 352.099 147.971 313.578C151.208 311.991 155.084 310.426 158.422 308.934L173.59 302.043C180.533 305.966 185.295 306.511 192.574 303.127C200.35 312.43 214.93 326.024 224.329 333.317C218.429 358.864 244.298 376.754 268.753 364.024C288.091 348.351 284.641 319.094 260.905 312.31C254.477 310.473 251.19 311.191 244.734 311.321C237.513 306.082 226.41 296.678 220.014 290.405C246.707 278.572 273.987 263.961 300.827 253.241C353.205 232.321 321.153 152.776 270.488 170.235C267.914 171.121 265.251 172.576 262.734 173.69L168.597 215.465C148.465 224.352 142.17 230.225 150.127 252.629C141.722 256.54 132.701 260.653 124.203 264.37C113.94 233.594 107.915 192.306 107.525 159.686C154.348 160.234 219.256 136.093 255.976 109.193Z"/><path fill="#EDF2F4" d="M255.976 70.4845C258.887 72.2562 262.77 75.476 265.568 77.5646C311.129 111.577 367.939 130.278 424.839 129.521C428.785 129.468 433.379 129.232 437.306 129.485L437.728 129.514C437.797 211.637 422.743 292.863 371.208 359.129C338.735 400.884 304.245 423.023 255.976 441.103C197.66 423.001 149.697 378.338 119.415 326.275C126.328 322.519 134.112 319.492 141.412 316.595C163.916 355.474 198.666 387.395 239.064 406.885C244.17 409.348 249.856 412.444 255.35 413.708C262.965 415.459 305.874 388.344 312.841 382.912C376.352 333.861 404.954 256.108 410.714 178.124C410.929 175.211 413.379 154.275 410.187 153.917C361.499 150.745 320.339 139.524 277.58 114.787C270.249 110.546 263.235 104.862 255.976 100.912C252.884 102.623 249.263 105.512 246.232 107.524C204.024 135.539 153.106 151.462 102.545 153.418C99.6987 153.528 100.733 159.633 100.627 161.371C102.161 200.39 107.782 230.159 117.994 267.23C111.067 270.212 103.557 273.579 96.8099 276.907C80.0081 229.518 74.1483 179.563 74.2913 129.514C139.544 129.476 190.715 119.13 245.207 78.5119C248.754 75.8679 252.306 73.0049 255.976 70.4845Z"/><path fill="#8D99AE" d="M276.896 175.513L277.351 175.554C278.002 176.102 304.761 237.106 307.011 242.435C303.34 244.46 297.44 246.94 293.495 248.768L213.094 285.954C206.534 289.007 189.701 298.337 183.429 298.591C177.921 297.675 175.4 295.282 173.236 290.278L159.163 257.181C150.83 237.031 148.629 231.619 169.216 222.61L258.667 182.839C263.868 180.531 271.679 176.858 276.896 175.513ZM177.558 253.956C180.746 253.398 189.846 248.877 193.396 247.259L247.471 222.82C250.565 221.442 274.047 211.762 275.055 209.415C277.329 204.123 274.204 199.463 268.753 199.777C266.003 200.516 263.552 201.74 260.97 202.908L194.869 232.745C187.733 235.913 179.933 239.164 173.067 242.771C168.276 245.289 170.177 254.733 177.558 253.956Z"/><path fill="#EF233C" d="M151.656 259.234C154.003 261.721 166.8 291.963 168.509 296.784C162.543 299.197 156.602 302.24 150.719 304.876L107.132 324.153C102.115 326.343 96.1801 328.832 91.3457 331.34C90.6201 330.25 88.7967 325.034 88.0421 323.389L80.7054 307.698C78.6986 303.366 76.5546 298.455 74.2913 294.318C79.7716 291.272 88.6128 287.753 94.4977 285.176L126.249 270.906C134.295 267.341 144.048 263.413 151.656 259.234Z"/><path fill="#EF233C" d="M249.917 317.825C262.074 316.439 273.048 325.182 274.413 337.341C275.779 349.5 267.017 360.459 254.856 361.805C242.723 363.147 231.796 354.41 230.433 342.28C229.071 330.15 237.789 319.207 249.917 317.825Z"/><path fill="#EF233C" d="M284.5 174.406C314.304 178.447 328.868 205.972 315.749 232.61L312.841 237.645C302.138 219.673 294.376 193.782 284.5 174.406Z"/><path fill="#EF233C" d="M213.103 294.318C214.865 294.38 234.829 312.273 237.711 314.775C229.803 319.47 230.21 322.803 226.113 326.46L225.371 326.275C217.464 317.475 207.771 309.462 199.381 300.333C203.331 298.14 208.744 295.287 213.103 294.318Z"/></svg>