<?xml version="1.0" encoding="utf-8" ?><svg xmlns="http://www.w3.org/2000/svg" xmlns:xlink="http://www.w3.org/1999/xlink" width="512" height="512" viewBox="0 0 512 512"><path fill="#2B2D42" d="M188.936 84.2553C220.12 83.3836 246.417 105.695 249.18 137.06C249.613 141.972 249.367 146.774 249.543 151.75L294.494 151.75C324.165 112.286 380.633 131.554 379.859 176.847C379.746 183.463 379.897 190.549 379.898 197.12L379.891 240.666C382.72 243.758 386.039 246.888 389.033 249.861L402.85 263.551C412.507 272.979 422.117 282.53 431.893 291.836L444.332 422.194C444.927 428.42 420.909 425.503 415.299 425.502L344.812 425.5L87.6686 425.511C84.8534 425.525 76.9651 426.094 75.1122 424.721C74.0411 423.025 74.4962 404.221 74.497 401.014L74.4988 227.544C72.5742 227.454 65.6764 228.249 66.1163 225.085C67.1393 217.726 69.6761 209.715 71.438 202.486L78.3208 174.457C79.4823 169.626 81.6237 152.005 86.8385 151.838C92.423 151.66 98.0207 151.734 103.596 151.735L135.843 151.75C135.835 133.575 136.177 120.68 148.151 105.616C159.011 91.9543 172.222 86.2672 188.936 84.2553ZM313.804 352.13C313.781 353.043 313.514 355.115 313.804 355.717C317.128 343.482 317.858 320.915 319.173 307.798C319.615 303.386 319.561 297.64 320.604 293.51C323.586 290.341 327.872 286.467 331.084 283.277L351.781 262.603C359.239 255.299 366.676 248.362 373.819 240.666L373.822 197.666C373.823 189.29 374.668 172.754 372.504 165.34C364.959 139.494 333.797 127.857 311.354 143.333C307.174 146.215 305.161 148.123 301.581 151.75C302.658 155.778 303.638 160.342 304.666 164.453L316.772 213.71C319.048 223.296 322.962 227.083 313.804 226.764L313.804 352.13ZM141.917 151.75L195.875 151.75L243.48 151.75C243.488 149.552 243.44 147.304 243.492 145.122C244.174 116.5 222.635 91.2436 193.455 90.2699C192.661 90.2424 190.666 90.3742 189.889 90.5329C163.471 91.4878 142.823 113.534 141.887 139.647C141.742 143.696 141.941 147.705 141.917 151.75ZM312.092 220.816C311.826 219.106 309.791 210.174 308.909 209.196C307.905 213.305 305.898 217.449 303.339 220.816L305.938 220.816L312.092 220.816ZM373.819 273.179C355.912 277.944 372.338 303.731 384.571 290.155C389.512 283.688 386.839 276.566 379.891 273.179C379.741 275.35 380.357 285.458 374.26 280.632C372.691 279.391 374.469 273.6 373.819 273.179ZM82.4865 220.816C80.8721 218.635 76.9832 209.648 76.3437 209.196C75.1252 212.767 74.2553 217.103 73.2387 220.816C75.9076 221.316 76.6464 221.295 79.375 220.816L82.4865 220.816Z"/><path fill="#CED0D6" d="M250.613 213.783C258.803 228.427 273.362 236.491 290.065 230.746C293.461 229.578 295.723 227.228 299.519 226.764C302.343 226.76 305.324 226.71 308.134 226.764L308.131 386.049C308.13 390.677 308.086 395.26 308.373 399.884C308.782 406.493 306.729 412.918 305.938 419.482C303.84 419.484 301.604 419.528 299.519 419.482L283.651 419.482L283.651 351.268C286.108 351.318 291.973 351.929 291.905 348.29C291.845 345.126 292.841 331.518 290.655 329.831C288.408 329.352 282.781 329.491 280.291 329.49L227.161 329.487C199.69 329.496 202.149 323.612 202.235 348.18C202.246 351.579 207.189 351.268 209.491 351.268L209.491 419.482L80.4606 419.482L80.4606 227.544C83.1599 227.498 86.9739 227.835 89.4687 227.544C106.61 237.567 128.684 234.139 135.843 213.783C140.528 221.952 144.267 227.282 153.426 230.924C169.081 237.148 187.522 229.764 193.546 213.783C204.93 238.509 239.656 237.981 250.613 213.783Z"/><path fill="#EDF2F4" d="M299.519 226.764C302.343 226.76 305.324 226.71 308.134 226.764L308.131 386.049C308.13 390.677 308.086 395.26 308.373 399.884C308.782 406.493 306.729 412.918 305.938 419.482C303.84 419.484 301.604 419.528 299.519 419.482C299.723 404.599 299.521 389.216 299.521 374.3L299.521 245.106C299.518 239.95 299.151 231.447 299.519 226.764Z"/><path fill="#2B2D42" d="M221.236 254.398L271.221 254.412C285.568 254.386 285.624 250.502 285.636 264.852L285.603 304.727C285.639 314.044 288.955 320.84 279.454 320.567L239.404 320.57C235.347 320.57 218.103 321.107 215.802 319.647C214.781 316.977 215.427 312.097 215.453 309.129L215.262 258.379C215.246 253.777 217.711 254.259 221.236 254.398Z"/><path fill="#EF233C" d="M225.249 290.155L247.506 290.155L247.506 314.402L244.312 314.402L221.236 314.402L221.236 290.155L225.249 290.155Z"/><path fill="#EDF2F4" d="M221.236 260.279L247.506 260.279L247.506 284.425L221.236 284.425L221.236 260.279Z"/><path fill="#EF233C" d="M253.588 290.155L279.454 290.155L279.454 314.402L253.588 314.402C253.419 306.515 253.579 298.084 253.588 290.155Z"/><path fill="white" d="M253.588 260.279C261.385 259.962 271.471 260.274 279.454 260.279C279.452 262.613 280.008 283.562 279.454 284.425L253.588 284.425C253.591 282.017 253.406 260.729 253.588 260.279Z"/><path fill="#2B2D42" d="M111.964 254.398L157.501 254.396C160.619 254.395 177.091 253.117 178.339 255.642C179.133 257.25 179.073 318.038 178.496 319.055C177.985 319.954 177.15 320.228 176.242 320.567L130.176 320.569C126.488 320.569 110.729 321.979 109.462 318.842C108.702 316.961 108.933 264.909 109.203 258.712C109.304 256.397 109.788 255.402 111.964 254.398Z"/><path fill="#EF233C" d="M146.779 290.155L172.765 290.155L172.765 314.402C171.205 314.564 166.223 314.425 164.383 314.423L146.779 314.402L146.779 290.155Z"/><path fill="#EDF2F4" d="M146.779 260.279C154.226 260.651 165.067 260.289 172.765 260.279C173.113 267.848 173.089 276.845 172.765 284.425L146.779 284.425L146.779 260.279Z"/><path fill="#EF233C" d="M115.473 290.155C123.577 290.16 132.745 289.917 140.767 290.155L140.767 314.402C132.706 314.196 123.599 314.375 115.473 314.402L115.473 290.155Z"/><path fill="#EDF2F4" d="M115.473 260.279L140.767 260.279L140.767 284.425L115.473 284.425L115.473 260.279Z"/><path fill="#2B2D42" d="M111.964 333.046C132.433 332.845 152.961 333.21 173.434 333.036C174.689 333.046 178.358 333.158 178.484 334.963C179.159 344.599 178.804 356.768 178.807 366.211L178.832 386.773C178.846 390.39 180.533 396.983 176.242 398.311C173.723 398.52 169.092 398.319 166.348 398.318L123.732 398.321C120.742 398.321 110.514 399.401 109.48 396.538C108.716 394.423 108.994 344.6 109.154 339.251C109.239 336.424 108.745 333.924 111.964 333.046Z"/><path fill="#EDF2F4" d="M146.779 339.229L172.765 339.229L172.765 363.232L146.779 363.232C146.684 355.299 146.777 347.177 146.779 339.229Z"/><path fill="#EDF2F4" d="M115.473 339.229L140.767 339.229L140.767 363.232L115.473 363.232L115.473 339.229Z"/><path fill="#EF233C" d="M146.779 369.26L172.765 369.26C172.755 376.599 173.02 385.083 172.765 392.293L146.779 392.293L146.779 369.26Z"/><path fill="#EF233C" d="M115.473 369.26L140.767 369.26L140.767 392.293L115.473 392.293L115.473 369.26Z"/><path fill="#8D99AE" d="M379.891 248.627C386.116 257.441 401.562 271.147 409.775 278.681C415.052 284.245 420.789 289.153 425.87 294.575C426.362 298.122 426.567 301.763 426.938 305.341L433.113 369.613C434.541 385.576 436.865 401.556 437.871 417.548C438.396 420.952 433.079 419.43 430.185 419.454L312.092 419.482C313.809 410.076 315.742 400.747 317.37 391.325C319.697 369.609 321.523 347.241 323.643 325.395L325.217 308.543C325.58 304.653 325.89 300.27 326.708 296.482C330.29 292.487 336.211 287.054 340.178 283.03L362.347 260.888C364.637 258.63 371.478 251.67 373.819 250.253C373.52 253.287 373.809 262.527 373.819 266.095C367.885 267.454 362.656 271.416 360.845 277.274C354.208 298.739 384.131 310.202 392.346 288.791C396.009 279.244 389.567 269.774 379.891 266.908L379.891 248.627Z"/><path fill="#5F6F83" d="M317.37 391.325L317.552 392.194C318.657 392.584 330.43 392.296 332.423 392.295L411.764 392.267C413.241 392.261 418.096 392.107 419.277 392.293C424.285 400.856 431.953 409.596 437.554 418.397C437.933 418.004 437.769 418.223 437.871 417.548C438.396 420.952 433.079 419.43 430.185 419.454L312.092 419.482C313.809 410.076 315.742 400.747 317.37 391.325Z"/><path fill="#CED0D6" d="M409.775 278.681C415.052 284.245 420.789 289.153 425.87 294.575C426.362 298.122 426.567 301.763 426.938 305.341L433.113 369.613C434.541 385.576 436.865 401.556 437.871 417.548C437.769 418.223 437.933 418.004 437.554 418.397C431.953 409.596 424.285 400.856 419.277 392.293C419.275 388.731 418.662 382.911 418.353 379.222L416.248 355.693C415.137 344.284 408.464 286.201 409.775 278.681Z"/><path fill="#EF233C" d="M98.274 157.853C110.673 157.855 123.489 157.673 135.843 157.853C135.93 162.06 135.014 182.539 136.677 184.768C138.259 186.888 141.232 186.331 141.735 183.622C142.285 180.663 141.96 177.25 141.949 174.245L141.917 157.853L243.48 157.853C243.45 161.486 242.927 182.975 244.162 184.697C245.755 186.919 248.968 185.291 249.379 182.959C249.889 180.068 249.575 176.796 249.564 173.852L249.543 157.853C265.002 157.854 281.19 157.599 296.569 157.853C296.545 158.552 296.56 159.209 296.569 159.907C299.655 166.6 303.488 184.152 304.754 191.734L80.4606 191.734C82.7073 180.651 86.7467 168.71 88.6483 157.853L98.274 157.853Z"/><path fill="#EDF2F4" d="M215.47 351.268L277.632 351.268L277.685 413.01C277.699 414.788 277.837 417.807 277.632 419.482L215.47 419.482L215.47 351.268Z"/><path fill="#2B2D42" d="M225.249 373.018C230.318 372.904 229.128 377.194 229.23 380.919C229.353 385.378 230.787 393.994 227.05 396.119C224.515 396.55 223.361 395.474 223.273 392.895C223.111 388.181 221.474 375.336 225.249 373.018Z"/><path fill="#EF233C" d="M121.69 197.925C125.373 197.897 129.039 197.855 132.722 197.925C132.443 203.385 132.192 208.442 129.75 213.406C123.234 226.658 107.767 230.241 95.2612 223.942C85.3834 218.19 81.7717 208.933 81.1824 197.925L121.69 197.925Z"/><path fill="#EF233C" d="M143.79 197.925L190.713 197.925C189.745 206.278 188.208 215.76 180.583 220.816C163.348 236.892 140.272 221.594 139.167 197.925L143.79 197.925Z"/><path fill="#EF233C" d="M196.561 197.925L247.506 197.925C247.311 207.754 245.68 211.37 239.931 218.984C227.484 228.737 209.579 229.571 200.837 214.606C197.709 209.25 196.944 204.103 196.561 197.925Z"/><path fill="#EF233C" d="M253.588 197.925L304.199 197.925C303.743 207.334 303.007 211.766 296.569 218.984C285.679 230.035 269.478 228.437 259.584 216.647C255.159 211.372 254.109 204.595 253.588 197.925Z"/><path fill="#EF233C" d="M208.044 335.778L285.631 335.778C285.833 337.567 285.646 343.47 285.631 345.461L208.044 345.461L208.044 335.778Z"/><path fill="#CED0D6" d="M313.804 352.13C313.781 353.043 313.514 355.115 313.804 355.717C313.78 356.638 313.68 358.395 313.804 359.24L313.804 359.24C313.751 356.811 313.763 354.55 313.804 352.13Z"/><path fill="#58515D" d="M313.804 359.24L313.804 359.24C314.027 363.516 313.127 362.854 313.804 359.24Z"/></svg>