<?xml version="1.0" encoding="utf-8" ?><svg xmlns="http://www.w3.org/2000/svg" xmlns:xlink="http://www.w3.org/1999/xlink" width="512" height="512" viewBox="0 0 512 512"><path fill="#431737" d="M108.138 84.0355C113.119 83.1859 127.587 84.1 133.717 84.0302C147.518 83.873 145.345 95.2139 145.349 104.771L311.315 104.771C311.303 99.6244 308.849 85.2603 317.18 85.2738C330.226 85.2949 343.319 85.0586 356.356 85.363C362.815 85.5138 360.788 100.507 360.767 104.771L380.754 104.758C407.301 104.813 410.722 118.784 410.513 141.848L424.414 141.827C439.773 141.783 447.782 142.824 447.935 160.352L447.929 211.991C447.926 225.996 438.454 226.328 427.438 226.295L410.513 226.265L410.513 285.804L426.05 285.77C436.114 285.745 447.833 286.208 447.913 299.427L447.949 350.62C447.928 368.892 441.179 369.067 426.043 369.019L410.513 368.996C410.369 380.719 412.223 405.58 410.189 415.838C407.975 427.004 396.793 426.233 388.581 426.215L79.405 426.322C65.7532 426.432 64.0923 419.665 64.209 407.703L64.1708 364.08C64.1046 350.401 72.0889 349.127 83.6784 349.146L298.482 349.166L298.489 260.849C298.481 235.366 293.108 213.094 264.845 204.333C256.287 201.68 247.919 202.266 239.044 202.278L187.351 202.315C172.423 202.289 169.612 214.473 169.655 226.241L169.711 239.375C169.745 251.853 166.367 257.801 155.303 263.855C158.584 267.178 183.518 290.451 183.742 292.58C184.018 295.203 180.683 296.039 178.84 294.674C170.309 288.352 156.171 272.83 148.725 265L134.987 265L135.006 279.215C135.024 291.222 136.088 295.523 124.481 301.691C124.484 306.051 125.126 330.717 123.808 332.495C121.971 334.973 119.063 333.495 118.697 330.867C117.788 324.342 118.569 308.674 118.691 301.691C106.051 298.685 105.946 290.154 105.977 278.842L105.998 265C96.0341 264.222 88.4535 266.811 79.8402 258.746C75.6511 254.824 72.8649 248.747 72.9125 243.012L72.9713 139.091C72.9663 119.717 75.2104 104.77 98.7433 104.771C98.9245 95.9209 96.451 85.9929 108.138 84.0355Z"/><path fill="#B4B3B4" d="M185.469 110.475L366.938 110.469C386.203 110.453 404.881 107.727 404.902 132.794L404.916 400.306C404.907 418.273 406.244 420.721 388.968 420.728L170.875 420.722L83.9903 420.765C68.7496 420.832 69.9061 419.089 69.9039 405.362L69.917 387.487L277.161 387.597C293.673 387.746 303.989 375.832 304.039 360.17L304.018 261.664C304.005 232.494 296.955 205.805 263.504 198.126C252.81 195.671 241.086 196.703 230.13 196.703L185.469 196.703L185.47 139.229C185.469 130.023 185.201 119.552 185.469 110.475Z"/><path fill="#431737" d="M353.403 138.467C370.427 137.896 384.701 151.211 385.314 168.233C385.928 185.255 372.648 199.563 355.628 200.218C338.547 200.876 324.179 187.54 323.563 170.458C322.948 153.376 336.319 139.04 353.403 138.467Z"/><path fill="#EDF2F4" d="M352.169 144.306C365.996 143.012 378.255 153.17 379.552 166.997C380.849 180.824 370.693 193.085 356.866 194.385C343.036 195.686 330.77 185.526 329.473 171.695C328.175 157.864 338.337 145.6 352.169 144.306Z"/><path fill="#431737" d="M351.063 226.695C367.96 224.563 383.378 236.555 385.471 253.457C387.564 270.359 375.537 285.75 358.63 287.804C341.778 289.852 326.448 277.872 324.362 261.024C322.276 244.177 334.22 228.82 351.063 226.695Z"/><path fill="#EF233C" d="M352.048 232.502C365.805 230.898 378.244 240.784 379.786 254.548C381.329 268.312 371.385 280.707 357.614 282.186C343.932 283.656 331.634 273.791 330.102 260.115C328.57 246.439 338.379 234.097 352.048 232.502Z"/><path fill="#EDF2F4" d="M125.114 110.475C128.343 110.343 132.508 110.466 135.795 110.469L170.687 110.461C173.627 110.439 176.966 110.266 179.846 110.475L179.846 197.816C164.906 202.328 163.915 215.216 163.923 228.465L163.943 244.181C163.066 258.385 149.553 259.371 138.75 259.359L124.481 259.339L124.475 122.988C124.474 120.899 124.326 112.259 124.613 110.693L125.114 110.475Z"/><path fill="#FD7653" d="M199.371 354.922L298.482 354.922C297.036 378.073 291.724 382.072 268.236 382.065L168.625 382.056L69.917 382.056L69.8916 369.29C69.8792 351.772 74.8227 354.91 89.7331 354.915L199.371 354.922Z"/><path fill="#EDF2F4" d="M97.6429 110.475C104.421 110.485 112.018 110.254 118.691 110.475L118.691 259.339L100.069 259.339C88.0454 259.21 78.5303 255.585 78.5292 241.192L78.5206 139.855C78.5243 124.582 78.3133 110.486 97.6429 110.475Z"/><path fill="#EF233C" d="M410.513 147.699L426.502 147.669C443.38 147.638 442.262 150.594 442.269 167.64L442.289 206.05C442.291 210.866 443.187 214.676 439.984 218.579C436.174 221.738 430.147 220.902 425.371 220.895L410.513 220.871L410.513 147.699Z"/><path fill="#EF233C" d="M410.513 291.532L426.818 291.501C443.507 291.483 442.303 293.22 442.283 310.383L442.287 348.377C442.302 353.08 443.171 357.537 439.984 361.275C436.127 364.425 430.35 363.554 425.51 363.538L410.513 363.514L410.513 291.532Z"/><path fill="#EF233C" d="M320.156 90.862L355.249 90.862C355.218 94.5056 356.938 104.812 353.725 104.771L316.989 104.771L316.989 90.862L320.156 90.862Z"/><path fill="#EDF2F4" d="M108.138 89.6997C116.618 89.432 128.412 89.5396 137.062 89.6997C141.222 92.7806 139.675 100.111 139.62 104.771L137.062 104.771L104.425 104.771C104.495 98.7034 102.339 92.7454 108.138 89.6997Z"/><path fill="#8D99AE" d="M111.624 265L129.449 265C129.426 272.524 131.677 288.199 126.657 293.592C120.983 298.605 113.875 296.104 111.917 288.786C111.218 286.174 111.577 281.232 111.595 278.29L111.624 265Z"/></svg>