<?xml version="1.0" encoding="utf-8" ?><svg xmlns="http://www.w3.org/2000/svg" xmlns:xlink="http://www.w3.org/1999/xlink" width="512" height="512" viewBox="0 0 512 512"><path fill="#2B2D42" d="M118.186 61.4801C119.783 61.3143 123.386 61.4666 125.152 61.4723L229.52 61.481C252.983 61.477 252.872 55.9541 252.804 76.7544L291.271 76.7332C298.894 76.732 309.159 74.9614 314.845 80.35C319.089 84.3723 318.037 90.0853 317.986 95.3499L317.955 174.756C363.745 195.984 385.495 254.556 365.291 300.58C362.807 306.238 359.735 311.4 356.468 316.604C359.743 319.725 366.552 326.89 369.327 330.328C379.72 323.855 385.808 333.601 392.364 340.155L445.676 393.747C454.881 403.164 462.736 408.941 461.272 423.721C459.376 442.871 436.544 453.577 420.868 442.263C417.569 439.883 414.37 436.271 411.466 433.33L383.655 405.485C381.193 403.016 377.236 399.314 375.25 396.735C368.51 390.474 362.108 383.905 355.679 377.32C350.149 371.252 338.318 363.717 345.488 354.41C340.72 350.505 336.356 346.083 332.163 341.573C327.461 344.708 322.987 347.172 317.955 349.691L317.963 396.233C317.965 403.791 318.422 411.621 317.6 419.119C317.169 430.11 297.533 427.255 290.57 427.252L70.3923 427.252C61.0312 427.25 50.259 427.746 50.2389 414.767L50.2199 98.983C50.222 82.0299 50.603 76.6267 69.0774 76.7376L115.246 76.7544C115.34 72.056 113.174 62.6608 118.186 61.4801ZM115.246 83.5328C113.13 83.7932 105.705 83.5424 103.081 83.5391L75.2482 83.5328L75.2482 400.759L302.201 400.77C305.193 400.791 308.535 400.967 311.468 400.759C311.278 385.875 310.638 368.281 311.468 353.511C308.178 354.149 304.94 355.506 301.684 356.455C248.817 371.864 196.386 340.617 180.861 288.597C178.398 288.738 174.924 288.607 172.371 288.605L140.35 288.614C121.091 288.728 128.827 281.759 131.373 281.801C147.135 282.062 163.629 281.145 179.327 281.708C177.239 272.64 176.698 254.756 179.327 245.861C177.174 245.936 172.58 245.927 170.382 245.861L143.642 245.876C139.535 245.881 135.404 245.974 131.304 245.843C126.848 245.7 127.206 238.993 131.341 238.814C143.384 238.296 158.627 238.193 170.382 238.759C174.932 239.156 176.239 239.285 180.861 238.759C181.01 235.039 183.091 229.764 184.526 226.228C204.914 175.979 260.74 150.958 311.468 171.733L311.461 117.479C311.462 108.265 311.56 99.0113 311.404 89.7993C312.496 81.3556 300.709 83.5185 295.663 83.5207L261.649 83.5272C258.707 83.5111 255.73 83.3384 252.804 83.5328C253.017 106.114 246.297 110.013 224.99 109.999L136.802 110.141C118.57 110.252 115.153 98.5249 115.246 83.5328ZM121.995 68.4843C121.981 74.5768 121.223 88.9178 122.526 93.752C125.476 104.696 135.51 103.281 143.696 103.275L233.6 103.26C237.443 103.251 239.572 102.383 242.415 99.7348C247.994 93.1374 246.06 77.0222 246.038 68.4843L121.995 68.4843ZM317.955 206.948C317.683 211.644 317.948 219.134 317.951 224.008L317.949 298.201C317.947 304.118 317.695 312.177 317.955 317.922C354.084 289.196 354.893 233.808 317.955 206.948Z"/><defs><linearGradient id="gradient_0" gradientUnits="userSpaceOnUse" x1="172.44481" y1="131.05193" x2="201.42807" y2="183.26863"><stop offset="0" stop-color="#738194"/><stop offset="1" stop-color="#898AA3"/></linearGradient></defs><path fill="url(#gradient_0)" d="M140.877 153.621L230.291 153.602C234.317 153.589 238.316 153.546 242.336 153.645C246.185 153.265 247.334 159.951 243.772 160.507C241.357 160.884 236.196 160.611 233.669 160.586L142.782 160.589C139.134 160.589 132.464 160.828 129.174 160.02C122.367 152.938 138.847 153.634 140.877 153.621Z"/><path fill="#8D99AE" d="M132.969 366.094L229.145 366.084C233.396 366.081 237.551 366.056 241.867 366.164C245.933 366.266 248.667 372.738 240.572 372.956L131.804 372.979C127.028 372.981 124.991 366.599 132.969 366.094Z"/><path fill="#8D99AE" d="M130.879 323.519C136.589 323.463 188.497 323.082 190.037 324.038C192.768 325.732 192.076 329.935 188.503 330.328C182.242 330.353 130.933 330.716 129.603 329.973C126.223 328.083 127.973 324.521 130.879 323.519Z"/><path fill="#8D99AE" d="M130.879 196.248L173.536 196.242C179.143 196.233 185.151 196.06 190.699 196.368C193.499 196.524 194.439 201.162 190.719 202.893C184.971 203.15 131.61 203.131 130.056 202.547C126.657 201.271 128.158 197.248 130.879 196.248Z"/><path fill="#EF233C" d="M111.932 266.996C114.313 267.138 116.478 268.668 116.432 271.223C115.437 273.119 97.9185 290.943 94.8276 293.223C94.3241 293.594 92.2957 292.128 91.5878 291.648C82.5495 282.214 90.0172 280.325 94.4106 284.471C97.7745 280.867 108.321 269.206 111.932 266.996Z"/><path fill="#EF233C" d="M111.932 140.046C126.977 141.164 96.2802 165.024 94.4106 165.939C92.7996 165.006 92.3734 164.66 90.9643 163.445C82.8881 156.56 89.9188 152.159 94.4106 157.037C97.137 154.303 109.743 141.186 111.932 140.046Z"/><path fill="#EF233C" d="M111.932 309.662C114.743 310.501 115.208 311.04 116.558 313.508C114.871 316.933 97.5185 334.168 94.4106 335.719C93.2426 335.038 92.5969 334.407 91.5878 333.525C87.912 330.222 83.9776 327.08 90.9643 324.448C92.5983 325.213 93.1494 325.546 94.4106 326.837C97.1937 323.953 109.34 311.259 111.932 309.662Z"/><path fill="#EF233C" d="M111.932 352.163C125.358 353.529 95.9697 377.471 94.4106 378.37C93.2987 377.724 92.608 377.192 91.5878 376.43C83.3562 369.616 88.875 365.092 94.4106 369.59C97.0719 365.823 107.942 354.427 111.932 352.163Z"/><path fill="#EF233C" d="M111.932 224.678C116 225.198 117.867 228.493 114.541 231.498C109.238 236.29 99.0552 248.423 94.4106 250.993C93.2545 250.215 92.6161 249.645 91.5878 248.738C82.8482 240.658 89.0975 237.167 94.4106 242.303C98.4488 238.021 107.636 227.847 111.932 224.678Z"/><path fill="#EF233C" d="M111.932 183.001C125.89 183.024 95.1204 207.869 94.7958 207.922C93.3061 208.161 92.0364 206.815 90.9643 205.959L90.326 205.414C83.4234 199.466 89.834 194.99 94.4106 199.463C98.2346 195.687 107.959 184.848 111.932 183.001Z"/><path fill="#EF233C" d="M270.92 171.583C321.028 169.248 363.558 207.942 365.956 258.047C368.354 308.152 329.713 350.731 279.611 353.191C229.42 355.656 186.75 316.932 184.348 266.738C181.946 216.544 220.723 173.923 270.92 171.583ZM317.955 317.922C354.084 289.196 354.893 233.808 317.955 206.948C317.683 211.644 317.948 219.134 317.951 224.008L317.949 298.201C317.947 304.118 317.695 312.177 317.955 317.922Z"/><path fill="#2B2D42" d="M272.874 185.315C315.351 184.09 350.818 217.45 352.193 259.922C353.569 302.394 320.334 337.979 277.867 339.504C235.187 341.038 199.385 307.6 198.002 264.915C196.62 222.23 230.184 186.546 272.874 185.315ZM317.955 317.922C354.084 289.196 354.893 233.808 317.955 206.948C317.683 211.644 317.948 219.134 317.951 224.008L317.949 298.201C317.947 304.118 317.695 312.177 317.955 317.922Z"/><path fill="#C3C9D2" d="M311.468 322.492C295.732 332.086 275.139 335.947 257.245 330.805C180.22 308.674 191.973 197.791 271.452 191.868C282.385 191.054 302.874 195.32 311.468 202.893C314.03 203.728 316.161 204.843 317.955 206.948C317.683 211.644 317.948 219.134 317.951 224.008L317.949 298.201C317.947 304.118 317.695 312.177 317.955 317.922C316.281 319.515 313.444 321.25 311.468 322.492Z"/><path fill="#8D99AE" d="M311.468 202.893C314.03 203.728 316.161 204.843 317.955 206.948C317.683 211.644 317.948 219.134 317.951 224.008L317.949 298.201C317.947 304.118 317.695 312.177 317.955 317.922C316.281 319.515 313.444 321.25 311.468 322.492C311.216 306.762 311.467 290.278 311.468 274.496L311.468 202.893Z"/><path fill="#EF233C" d="M294.344 228.046C306.823 227.387 313.33 239.798 303.839 249.32C290.831 262.398 278.097 275.958 264.382 288.274C254.023 295.415 244.025 282.617 237.565 276.065C230.559 268.665 218.016 261.045 227.7 249.697C235.303 240.786 244.688 248.384 250.566 254.474L257.447 261.625C260.138 259.054 263.222 255.717 265.918 253.009L280.447 238.633C284.961 234.147 287.808 229.443 294.344 228.046Z"/><path fill="white" d="M295.291 234.049C299.153 234.316 303.88 238.541 301.567 241.622C296.615 248.218 289.629 254.456 283.757 260.215L270.227 273.698C261.376 282.494 258.779 288.88 248.567 277.248C246.763 275.193 239.678 267.982 237.565 266.996C235.717 264.697 231.449 261.045 231.126 258.306C230.676 254.482 236.013 250.888 239.422 253.448C245.902 258.313 250.97 265.135 257.089 270.419L257.447 270.726C262.339 265.405 290.834 235.129 295.291 234.049Z"/><path fill="#C3C9D2" d="M311.468 400.759C311.512 409.729 314.538 420.4 304.542 420.489L63.0116 420.417C53.6784 420.333 56.9607 405.383 56.973 397.575L56.9931 92.0732C57.0537 82.3317 62.561 83.5332 69.9604 83.5281L104.128 83.5293C107.584 83.5249 111.883 83.3603 115.246 83.5328C113.13 83.7932 105.705 83.5424 103.081 83.5391L75.2482 83.5328L75.2482 400.759L302.201 400.77C305.193 400.791 308.535 400.967 311.468 400.759Z"/><path fill="#EF233C" d="M388.63 346.199C389.86 346.962 396.428 354.294 398.017 355.85L430.731 388.334C436.317 393.909 441.91 399.323 447.455 405.036C463.198 420.212 449.211 446.957 428.592 438.772C423.199 436.074 415.905 427.943 411.532 423.546L371.998 384.057C368.668 380.677 364.41 376.528 361.391 372.956C371.001 364.697 379.47 353.991 388.63 346.199Z"/><path fill="#EF233C" d="M375.25 335.719C379.655 335.526 381.083 338.429 383.474 341.573C374.907 349.199 365.156 359.385 357.432 367.777C356.513 368.776 354.291 365.717 353.486 365.109C346.832 360.075 352.413 356.259 356.577 352.056C360.342 348.255 370.347 336.334 375.25 335.719Z"/><path fill="#EF233C" d="M352.681 322.492C356.646 325.797 360.999 330.588 364.545 334.354C359.354 339.454 354.391 344.353 349.428 349.691C345.478 345.379 341.419 341.59 337.348 337.424C342.886 332.748 347.405 327.371 352.681 322.492Z"/><path fill="#C3C9D2" d="M180.861 288.597C178.398 288.738 174.924 288.607 172.371 288.605L140.35 288.614C121.091 288.728 128.827 281.759 131.373 281.801C147.135 282.062 163.629 281.145 179.327 281.708C179.632 283.803 180.183 286.596 180.861 288.597Z"/><path fill="#585973" d="M170.382 245.861L143.642 245.876C139.535 245.881 135.404 245.974 131.304 245.843C126.848 245.7 127.206 238.993 131.341 238.814C143.384 238.296 158.627 238.193 170.382 238.759C172.162 241.876 172.307 242.673 170.382 245.861Z"/><path fill="#C3C9D2" d="M170.382 238.759C174.932 239.156 176.239 239.285 180.861 238.759C179.862 241.573 179.623 242.883 179.327 245.861C177.174 245.936 172.58 245.927 170.382 245.861C172.307 242.673 172.162 241.876 170.382 238.759Z"/></svg>